<svg width="1500" height="500" viewBox="0 0 1500 500" fill="none" xmlns="http://www.w3.org/2000/svg">
<rect width="1500" height="500" fill="black"/>
<rect width="6.30822" height="32.93" rx="3.15411" transform="matrix(-0.913214 0.407481 -0.448482 -0.893792 515.271 312.433)" fill="#E5E5E5" fill-opacity="0.76"/>
<rect width="6.30822" height="32.93" rx="3.15411" transform="matrix(0.913214 0.407481 0.448482 -0.893792 494.741 312.433)" fill="#E5E5E5"/>
<rect width="6.61884" height="31.4669" rx="3.30942" transform="matrix(0.0806001 0.996746 0.999989 0.00467111 489 295.662)" fill="white"/>
<rect width="6.30822" height="32.93" rx="3.15411" transform="matrix(-0.913214 0.407481 -0.448482 -0.893792 357.271 214.433)" fill="#E5E5E5" fill-opacity="0.76"/>
<rect width="6.30822" height="32.93" rx="3.15411" transform="matrix(0.913214 0.407481 0.448482 -0.893792 336.741 214.433)" fill="#E5E5E5"/>
<rect width="6.61884" height="31.4669" rx="3.30942" transform="matrix(0.0806001 0.996746 0.999989 0.00467111 331 197.662)" fill="white"/>
<rect width="6.30822" height="32.93" rx="3.15411" transform="matrix(-0.913214 0.407481 -0.448482 -0.893792 452.271 227.433)" fill="#E5E5E5" fill-opacity="0.76"/>
<rect width="6.30822" height="32.93" rx="3.15411" transform="matrix(0.913214 0.407481 0.448482 -0.893792 431.741 227.433)" fill="#E5E5E5"/>
<rect width="6.61884" height="31.4669" rx="3.30942" transform="matrix(0.0806001 0.996746 0.999989 0.00467111 426 210.662)" fill="white"/>
<rect width="6.30822" height="32.93" rx="3.15411" transform="matrix(-0.913214 0.407481 -0.448482 -0.893792 262.271 274.433)" fill="#E5E5E5" fill-opacity="0.76"/>
<rect width="6.30822" height="32.93" rx="3.15411" transform="matrix(0.913214 0.407481 0.448482 -0.893792 241.741 274.433)" fill="#E5E5E5"/>
<rect width="6.61884" height="31.4669" rx="3.30942" transform="matrix(0.0806001 0.996746 0.999989 0.00467111 236 257.662)" fill="white"/>
<rect width="6.30822" height="32.93" rx="3.15411" transform="matrix(-0.913214 0.407481 -0.448482 -0.893792 603.271 152.433)" fill="#E5E5E5" fill-opacity="0.76"/>
<rect width="6.30822" height="32.93" rx="3.15411" transform="matrix(0.913214 0.407481 0.448482 -0.893792 582.741 152.433)" fill="#E5E5E5"/>
<rect width="6.61884" height="31.4669" rx="3.30942" transform="matrix(0.0806001 0.996746 0.999989 0.00467111 577 135.662)" fill="white"/>
<rect width="6.30822" height="32.93" rx="3.15411" transform="matrix(-0.913214 0.407481 -0.448482 -0.893792 619.271 255.433)" fill="#E5E5E5" fill-opacity="0.76"/>
<rect width="6.30822" height="32.93" rx="3.15411" transform="matrix(0.913214 0.407481 0.448482 -0.893792 598.741 255.433)" fill="#E5E5E5"/>
<rect width="6.61884" height="31.4669" rx="3.30942" transform="matrix(0.0806001 0.996746 0.999989 0.00467111 593 238.662)" fill="white"/>
<rect width="6.30822" height="32.93" rx="3.15411" transform="matrix(-0.913214 0.407481 -0.448482 -0.893792 784.271 105.433)" fill="#E5E5E5" fill-opacity="0.76"/>
<rect width="6.30822" height="32.93" rx="3.15411" transform="matrix(0.913214 0.407481 0.448482 -0.893792 763.741 105.433)" fill="#E5E5E5"/>
<rect width="6.61884" height="31.4669" rx="3.30942" transform="matrix(0.0806001 0.996746 0.999989 0.00467111 758 88.6615)" fill="white"/>
<rect width="6.30822" height="32.93" rx="3.15411" transform="matrix(-0.913214 0.407481 -0.448482 -0.893792 1010.27 152.433)" fill="#E5E5E5" fill-opacity="0.76"/>
<rect width="6.30822" height="32.93" rx="3.15411" transform="matrix(0.913214 0.407481 0.448482 -0.893792 989.741 152.433)" fill="#E5E5E5"/>
<rect width="6.61884" height="31.4669" rx="3.30942" transform="matrix(0.0806001 0.996746 0.999989 0.00467111 984 135.662)" fill="white"/>
<rect width="6.30822" height="32.93" rx="3.15411" transform="matrix(-0.913214 0.407481 -0.448482 -0.893792 1462.27 136.433)" fill="#E5E5E5" fill-opacity="0.76"/>
<rect width="6.30822" height="32.93" rx="3.15411" transform="matrix(0.913214 0.407481 0.448482 -0.893792 1441.74 136.433)" fill="#E5E5E5"/>
<rect width="6.61884" height="31.4669" rx="3.30942" transform="matrix(0.0806001 0.996746 0.999989 0.00467111 1436 119.662)" fill="white"/>
<rect width="6.30822" height="32.93" rx="3.15411" transform="matrix(-0.913214 0.407481 -0.448482 -0.893792 1142.27 105.433)" fill="#E5E5E5" fill-opacity="0.76"/>
<rect width="6.30822" height="32.93" rx="3.15411" transform="matrix(0.913214 0.407481 0.448482 -0.893792 1121.74 105.433)" fill="#E5E5E5"/>
<rect width="6.61884" height="31.4669" rx="3.30942" transform="matrix(0.0806001 0.996746 0.999989 0.00467111 1116 88.6615)" fill="white"/>
<rect width="6.30822" height="32.93" rx="3.15411" transform="matrix(-0.913214 0.407481 -0.448482 -0.893792 1376.27 86.4325)" fill="#E5E5E5" fill-opacity="0.76"/>
<rect width="6.30822" height="32.93" rx="3.15411" transform="matrix(0.913214 0.407481 0.448482 -0.893792 1355.74 86.4325)" fill="#E5E5E5"/>
<rect width="6.61884" height="31.4669" rx="3.30942" transform="matrix(0.0806001 0.996746 0.999989 0.00467111 1350 69.6615)" fill="white"/>
<rect width="6.30822" height="32.93" rx="3.15411" transform="matrix(-0.913214 0.407481 -0.448482 -0.893792 862.271 190.433)" fill="#E5E5E5" fill-opacity="0.76"/>
<rect width="6.30822" height="32.93" rx="3.15411" transform="matrix(0.913214 0.407481 0.448482 -0.893792 841.741 190.433)" fill="#E5E5E5"/>
<rect width="6.61884" height="31.4669" rx="3.30942" transform="matrix(0.0806001 0.996746 0.999989 0.00467111 836 173.662)" fill="white"/>
<rect width="6.30822" height="32.93" rx="3.15411" transform="matrix(-0.913214 0.407481 -0.448482 -0.893792 947.271 50.4326)" fill="#E5E5E5" fill-opacity="0.76"/>
<rect width="6.30822" height="32.93" rx="3.15411" transform="matrix(0.913214 0.407481 0.448482 -0.893792 926.741 50.4326)" fill="#E5E5E5"/>
<rect width="6.61884" height="31.4669" rx="3.30942" transform="matrix(0.0806001 0.996746 0.999989 0.00467111 921 33.6615)" fill="white"/>
<rect width="6.30822" height="32.93" rx="3.15411" transform="matrix(-0.913214 0.407481 -0.448482 -0.893792 1259.27 63.4326)" fill="#E5E5E5" fill-opacity="0.76"/>
<rect width="6.30822" height="32.93" rx="3.15411" transform="matrix(0.913214 0.407481 0.448482 -0.893792 1238.74 63.4326)" fill="#E5E5E5"/>
<rect width="6.61884" height="31.4669" rx="3.30942" transform="matrix(0.0806001 0.996746 0.999989 0.00467111 1233 46.6615)" fill="white"/>
<rect width="3.35129" height="17.4952" rx="1.67564" transform="matrix(-0.913201 0.407509 -0.448453 -0.893807 511.956 378.637)" fill="#E5E5E5" fill-opacity="0.39"/>
<rect width="3.35129" height="17.4952" rx="1.67564" transform="matrix(0.913201 0.407509 0.448453 -0.893807 501.05 378.637)" fill="#E5E5E5" fill-opacity="0.37"/>
<rect width="3.51655" height="16.7168" rx="1.75828" transform="matrix(0.0805934 0.996747 0.999989 0.0046715 498 369.727)" fill="white" fill-opacity="0.42"/>
<rect width="3.35129" height="17.4952" rx="1.67564" transform="matrix(-0.913201 0.407509 -0.448453 -0.893807 208.956 420.637)" fill="#E5E5E5" fill-opacity="0.39"/>
<rect width="3.35129" height="17.4952" rx="1.67564" transform="matrix(0.913201 0.407509 0.448453 -0.893807 198.05 420.637)" fill="#E5E5E5" fill-opacity="0.37"/>
<rect width="3.51655" height="16.7168" rx="1.75828" transform="matrix(0.0805934 0.996747 0.999989 0.0046715 195 411.727)" fill="white" fill-opacity="0.42"/>
<rect width="3.35129" height="17.4952" rx="1.67564" transform="matrix(-0.913201 0.407509 -0.448453 -0.893807 72.9562 204.637)" fill="#E5E5E5" fill-opacity="0.39"/>
<rect width="3.35129" height="17.4952" rx="1.67564" transform="matrix(0.913201 0.407509 0.448453 -0.893807 62.05 204.637)" fill="#E5E5E5" fill-opacity="0.37"/>
<rect width="3.51655" height="16.7168" rx="1.75828" transform="matrix(0.0805934 0.996747 0.999989 0.0046715 59 195.727)" fill="white" fill-opacity="0.42"/>
<rect width="3.35129" height="17.4952" rx="1.67564" transform="matrix(-0.913201 0.407509 -0.448453 -0.893807 142.956 87.6373)" fill="#E5E5E5" fill-opacity="0.39"/>
<rect width="3.35129" height="17.4952" rx="1.67564" transform="matrix(0.913201 0.407509 0.448453 -0.893807 132.05 87.6373)" fill="#E5E5E5" fill-opacity="0.37"/>
<rect width="3.51655" height="16.7168" rx="1.75828" transform="matrix(0.0805934 0.996747 0.999989 0.0046715 129 78.727)" fill="white" fill-opacity="0.42"/>
<rect width="3.35129" height="17.4952" rx="1.67564" transform="matrix(-0.913201 0.407509 -0.448453 -0.893807 327.956 53.6373)" fill="#E5E5E5" fill-opacity="0.39"/>
<rect width="3.35129" height="17.4952" rx="1.67564" transform="matrix(0.913201 0.407509 0.448453 -0.893807 317.05 53.6373)" fill="#E5E5E5" fill-opacity="0.37"/>
<rect width="3.51655" height="16.7168" rx="1.75828" transform="matrix(0.0805934 0.996747 0.999989 0.0046715 314 44.727)" fill="white" fill-opacity="0.42"/>
<rect width="3.35129" height="17.4952" rx="1.67564" transform="matrix(-0.913201 0.407509 -0.448453 -0.893807 587.956 27.6373)" fill="#E5E5E5" fill-opacity="0.39"/>
<rect width="3.35129" height="17.4952" rx="1.67564" transform="matrix(0.913201 0.407509 0.448453 -0.893807 577.05 27.6373)" fill="#E5E5E5" fill-opacity="0.37"/>
<rect width="3.51655" height="16.7168" rx="1.75828" transform="matrix(0.0805934 0.996747 0.999989 0.0046715 574 18.727)" fill="white" fill-opacity="0.42"/>
<rect width="3.35129" height="17.4952" rx="1.67564" transform="matrix(-0.913201 0.407509 -0.448453 -0.893807 872.956 447.637)" fill="#E5E5E5" fill-opacity="0.39"/>
<rect width="3.35129" height="17.4952" rx="1.67564" transform="matrix(0.913201 0.407509 0.448453 -0.893807 862.05 447.637)" fill="#E5E5E5" fill-opacity="0.37"/>
<rect width="3.51655" height="16.7168" rx="1.75828" transform="matrix(0.0805934 0.996747 0.999989 0.0046715 859 438.727)" fill="white" fill-opacity="0.42"/>
<rect width="3.35129" height="17.4952" rx="1.67564" transform="matrix(-0.913201 0.407509 -0.448453 -0.893807 900.956 317.637)" fill="#E5E5E5" fill-opacity="0.39"/>
<rect width="3.35129" height="17.4952" rx="1.67564" transform="matrix(0.913201 0.407509 0.448453 -0.893807 890.05 317.637)" fill="#E5E5E5" fill-opacity="0.37"/>
<rect width="3.51655" height="16.7168" rx="1.75828" transform="matrix(0.0805934 0.996747 0.999989 0.0046715 887 308.727)" fill="white" fill-opacity="0.42"/>
<rect width="3.35129" height="17.4952" rx="1.67564" transform="matrix(-0.913201 0.407509 -0.448453 -0.893807 1278.96 170.637)" fill="#E5E5E5" fill-opacity="0.39"/>
<rect width="3.35129" height="17.4952" rx="1.67564" transform="matrix(0.913201 0.407509 0.448453 -0.893807 1268.05 170.637)" fill="#E5E5E5" fill-opacity="0.37"/>
<rect width="3.51655" height="16.7168" rx="1.75828" transform="matrix(0.0805934 0.996747 0.999989 0.0046715 1265 161.727)" fill="white" fill-opacity="0.42"/>
<rect width="3.35129" height="17.4952" rx="1.67564" transform="matrix(-0.913201 0.407509 -0.448453 -0.893807 754.956 276.637)" fill="#E5E5E5" fill-opacity="0.39"/>
<rect width="3.35129" height="17.4952" rx="1.67564" transform="matrix(0.913201 0.407509 0.448453 -0.893807 744.05 276.637)" fill="#E5E5E5" fill-opacity="0.37"/>
<rect width="3.51655" height="16.7168" rx="1.75828" transform="matrix(0.0805934 0.996747 0.999989 0.0046715 741 267.727)" fill="white" fill-opacity="0.42"/>
<rect width="3.35129" height="17.4952" rx="1.67564" transform="matrix(-0.913201 0.407509 -0.448453 -0.893807 1103.96 273.637)" fill="#E5E5E5" fill-opacity="0.39"/>
<rect width="3.35129" height="17.4952" rx="1.67564" transform="matrix(0.913201 0.407509 0.448453 -0.893807 1093.05 273.637)" fill="#E5E5E5" fill-opacity="0.37"/>
<rect width="3.51655" height="16.7168" rx="1.75828" transform="matrix(0.0805934 0.996747 0.999989 0.0046715 1090 264.727)" fill="white" fill-opacity="0.42"/>
<rect width="3.35129" height="17.4952" rx="1.67564" transform="matrix(-0.913201 0.407509 -0.448453 -0.893807 1246.96 297.637)" fill="#E5E5E5" fill-opacity="0.39"/>
<rect width="3.35129" height="17.4952" rx="1.67564" transform="matrix(0.913201 0.407509 0.448453 -0.893807 1236.05 297.637)" fill="#E5E5E5" fill-opacity="0.37"/>
<rect width="3.51655" height="16.7168" rx="1.75828" transform="matrix(0.0805934 0.996747 0.999989 0.0046715 1233 288.727)" fill="white" fill-opacity="0.42"/>
<rect width="3.35129" height="17.4952" rx="1.67564" transform="matrix(-0.913201 0.407509 -0.448453 -0.893807 724.956 437.637)" fill="#E5E5E5" fill-opacity="0.39"/>
<rect width="3.35129" height="17.4952" rx="1.67564" transform="matrix(0.913201 0.407509 0.448453 -0.893807 714.05 437.637)" fill="#E5E5E5" fill-opacity="0.37"/>
<rect width="3.51655" height="16.7168" rx="1.75828" transform="matrix(0.0805934 0.996747 0.999989 0.0046715 711 428.727)" fill="white" fill-opacity="0.42"/>
<rect width="3.35129" height="17.4952" rx="1.67564" transform="matrix(-0.913201 0.407509 -0.448453 -0.893807 1058.96 379.637)" fill="#E5E5E5" fill-opacity="0.39"/>
<rect width="3.35129" height="17.4952" rx="1.67564" transform="matrix(0.913201 0.407509 0.448453 -0.893807 1048.05 379.637)" fill="#E5E5E5" fill-opacity="0.37"/>
<rect width="3.51655" height="16.7168" rx="1.75828" transform="matrix(0.0805934 0.996747 0.999989 0.0046715 1045 370.727)" fill="white" fill-opacity="0.42"/>
<rect width="3.35129" height="17.4952" rx="1.67564" transform="matrix(-0.913201 0.407509 -0.448453 -0.893807 1278.96 338.637)" fill="#E5E5E5" fill-opacity="0.39"/>
<rect width="3.35129" height="17.4952" rx="1.67564" transform="matrix(0.913201 0.407509 0.448453 -0.893807 1268.05 338.637)" fill="#E5E5E5" fill-opacity="0.37"/>
<rect width="3.51655" height="16.7168" rx="1.75828" transform="matrix(0.0805934 0.996747 0.999989 0.0046715 1265 329.727)" fill="white" fill-opacity="0.42"/>
<rect width="3.35129" height="17.4952" rx="1.67564" transform="matrix(-0.913201 0.407509 -0.448453 -0.893807 1409.96 428.637)" fill="#E5E5E5" fill-opacity="0.39"/>
<rect width="3.35129" height="17.4952" rx="1.67564" transform="matrix(0.913201 0.407509 0.448453 -0.893807 1399.05 428.637)" fill="#E5E5E5" fill-opacity="0.37"/>
<rect width="3.51655" height="16.7168" rx="1.75828" transform="matrix(0.0805934 0.996747 0.999989 0.0046715 1396 419.727)" fill="white" fill-opacity="0.42"/>
<rect width="3.35129" height="17.4952" rx="1.67564" transform="matrix(-0.913201 0.407509 -0.448453 -0.893807 1464.96 311.637)" fill="#E5E5E5" fill-opacity="0.39"/>
<rect width="3.35129" height="17.4952" rx="1.67564" transform="matrix(0.913201 0.407509 0.448453 -0.893807 1454.05 311.637)" fill="#E5E5E5" fill-opacity="0.37"/>
<rect width="3.51655" height="16.7168" rx="1.75828" transform="matrix(0.0805934 0.996747 0.999989 0.0046715 1451 302.727)" fill="white" fill-opacity="0.42"/>
<rect width="3.35129" height="17.4952" rx="1.67564" transform="matrix(-0.913201 0.407509 -0.448453 -0.893807 499.956 114.637)" fill="#E5E5E5" fill-opacity="0.39"/>
<rect width="3.35129" height="17.4952" rx="1.67564" transform="matrix(0.913201 0.407509 0.448453 -0.893807 489.05 114.637)" fill="#E5E5E5" fill-opacity="0.37"/>
<rect width="3.51655" height="16.7168" rx="1.75828" transform="matrix(0.0805934 0.996747 0.999989 0.0046715 486 105.727)" fill="white" fill-opacity="0.42"/>
</svg>
