<svg width="2048" height="1152" viewBox="0 0 2048 1152" fill="none" xmlns="http://www.w3.org/2000/svg">
<rect width="2048" height="1152" fill="black"/>
<rect width="9.45926" height="49.3623" rx="4.72963" transform="matrix(-0.913295 0.407299 -0.448673 -0.893696 677.807 1045.93)" fill="#E5E5E5" fill-opacity="0.76"/>
<rect width="9.45926" height="49.3623" rx="4.72963" transform="matrix(0.913295 0.407299 0.448673 -0.893696 647.02 1045.93)" fill="#E5E5E5"/>
<rect width="9.92065" height="47.1891" rx="4.96033" transform="matrix(0.0806428 0.996743 0.999989 0.00466862 638.41 1020.79)" fill="white"/>
<rect width="9.45926" height="49.3623" rx="4.72963" transform="matrix(-0.913295 0.407299 -0.448673 -0.893696 397.396 972.115)" fill="#E5E5E5" fill-opacity="0.76"/>
<rect width="9.45926" height="49.3623" rx="4.72963" transform="matrix(0.913295 0.407299 0.448673 -0.893696 366.61 972.115)" fill="#E5E5E5"/>
<rect width="9.92065" height="47.1891" rx="4.96033" transform="matrix(0.0806428 0.996743 0.999989 0.00466862 358 946.978)" fill="white"/>
<rect width="9.45926" height="49.3623" rx="4.72963" transform="matrix(-0.913295 0.407299 -0.448673 -0.893696 149.396 1033.11)" fill="#E5E5E5" fill-opacity="0.76"/>
<rect width="9.45926" height="49.3623" rx="4.72963" transform="matrix(0.913295 0.407299 0.448673 -0.893696 118.61 1033.11)" fill="#E5E5E5"/>
<rect width="9.92065" height="47.1891" rx="4.96033" transform="matrix(0.0806428 0.996743 0.999989 0.00466862 110 1007.98)" fill="white"/>
<rect width="9.45926" height="49.3623" rx="4.72963" transform="matrix(-0.913295 0.407299 -0.448673 -0.893696 583.329 918.528)" fill="#E5E5E5" fill-opacity="0.76"/>
<rect width="9.45926" height="49.3623" rx="4.72963" transform="matrix(0.913295 0.407299 0.448673 -0.893696 552.542 918.528)" fill="#E5E5E5"/>
<rect width="9.92065" height="47.1891" rx="4.96033" transform="matrix(0.0806428 0.996743 0.999989 0.00466862 543.933 893.391)" fill="white"/>
<rect width="9.45926" height="49.3623" rx="4.72963" transform="matrix(-0.913295 0.407299 -0.448673 -0.893696 269.396 943.115)" fill="#E5E5E5" fill-opacity="0.76"/>
<rect width="9.45926" height="49.3623" rx="4.72963" transform="matrix(0.913295 0.407299 0.448673 -0.893696 238.61 943.115)" fill="#E5E5E5"/>
<rect width="9.92065" height="47.1891" rx="4.96033" transform="matrix(0.0806428 0.996743 0.999989 0.00466862 230 917.978)" fill="white"/>
<rect width="9.45926" height="49.3623" rx="4.72963" transform="matrix(-0.913295 0.407299 -0.448673 -0.893696 809.776 806.115)" fill="#E5E5E5" fill-opacity="0.76"/>
<rect width="9.45926" height="49.3623" rx="4.72963" transform="matrix(0.913295 0.407299 0.448673 -0.893696 778.989 806.115)" fill="#E5E5E5"/>
<rect width="9.92065" height="47.1891" rx="4.96033" transform="matrix(0.0806428 0.996743 0.999989 0.00466862 770.379 780.978)" fill="white"/>
<rect width="9.45926" height="49.3623" rx="4.72963" transform="matrix(-0.913295 0.407299 -0.448673 -0.893696 833.77 960.496)" fill="#E5E5E5" fill-opacity="0.76"/>
<rect width="9.45926" height="49.3623" rx="4.72963" transform="matrix(0.913295 0.407299 0.448673 -0.893696 802.983 960.496)" fill="#E5E5E5"/>
<rect width="9.92065" height="47.1891" rx="4.96033" transform="matrix(0.0806428 0.996743 0.999989 0.00466862 794.373 935.359)" fill="white"/>
<rect width="9.45926" height="49.3623" rx="4.72963" transform="matrix(-0.913295 0.407299 -0.448673 -0.893696 1087.4 272.551)" fill="#E5E5E5" fill-opacity="0.76"/>
<rect width="9.45926" height="49.3623" rx="4.72963" transform="matrix(0.913295 0.407299 0.448673 -0.893696 1056.61 272.551)" fill="#E5E5E5"/>
<rect width="9.92065" height="47.1891" rx="4.96033" transform="matrix(0.0806428 0.996743 0.999989 0.00466862 1048 247.414)" fill="white"/>
<rect width="9.45926" height="49.3623" rx="4.72963" transform="matrix(-0.913295 0.407299 -0.448673 -0.893696 1426.32 342.997)" fill="#E5E5E5" fill-opacity="0.76"/>
<rect width="9.45926" height="49.3623" rx="4.72963" transform="matrix(0.913295 0.407299 0.448673 -0.893696 1395.53 342.997)" fill="#E5E5E5"/>
<rect width="9.92065" height="47.1891" rx="4.96033" transform="matrix(0.0806428 0.996743 0.999989 0.00466862 1386.92 317.86)" fill="white"/>
<rect width="9.45926" height="49.3623" rx="4.72963" transform="matrix(-0.913295 0.407299 -0.448673 -0.893696 1624.27 272.551)" fill="#E5E5E5" fill-opacity="0.76"/>
<rect width="9.45926" height="49.3623" rx="4.72963" transform="matrix(0.913295 0.407299 0.448673 -0.893696 1593.48 272.551)" fill="#E5E5E5"/>
<rect width="9.92065" height="47.1891" rx="4.96033" transform="matrix(0.0806428 0.996743 0.999989 0.00466862 1584.87 247.414)" fill="white"/>
<rect width="9.45926" height="49.3623" rx="4.72963" transform="matrix(-0.913295 0.407299 -0.448673 -0.893696 1975.19 244.073)" fill="#E5E5E5" fill-opacity="0.76"/>
<rect width="9.45926" height="49.3623" rx="4.72963" transform="matrix(0.913295 0.407299 0.448673 -0.893696 1944.4 244.073)" fill="#E5E5E5"/>
<rect width="9.92065" height="47.1891" rx="4.96033" transform="matrix(0.0806428 0.996743 0.999989 0.00466862 1935.79 218.936)" fill="white"/>
<rect width="9.45926" height="49.3623" rx="4.72963" transform="matrix(-0.913295 0.407299 -0.448673 -0.893696 1204.37 399.953)" fill="#E5E5E5" fill-opacity="0.76"/>
<rect width="9.45926" height="49.3623" rx="4.72963" transform="matrix(0.913295 0.407299 0.448673 -0.893696 1173.58 399.953)" fill="#E5E5E5"/>
<rect width="9.92065" height="47.1891" rx="4.96033" transform="matrix(0.0806428 0.996743 0.999989 0.00466862 1164.97 374.816)" fill="white"/>
<rect width="9.45926" height="49.3623" rx="4.72963" transform="matrix(-0.913295 0.407299 -0.448673 -0.893696 1331.84 190.115)" fill="#E5E5E5" fill-opacity="0.76"/>
<rect width="9.45926" height="49.3623" rx="4.72963" transform="matrix(0.913295 0.407299 0.448673 -0.893696 1301.05 190.115)" fill="#E5E5E5"/>
<rect width="9.92065" height="47.1891" rx="4.96033" transform="matrix(0.0806428 0.996743 0.999989 0.00466862 1292.44 164.978)" fill="white"/>
<rect width="9.45926" height="49.3623" rx="4.72963" transform="matrix(-0.913295 0.407299 -0.448673 -0.893696 1799.73 209.6)" fill="#E5E5E5" fill-opacity="0.76"/>
<rect width="9.45926" height="49.3623" rx="4.72963" transform="matrix(0.913295 0.407299 0.448673 -0.893696 1768.94 209.6)" fill="#E5E5E5"/>
<rect width="9.92065" height="47.1891" rx="4.96033" transform="matrix(0.0806428 0.996743 0.999989 0.00466862 1760.33 184.463)" fill="white"/>
<rect width="5.0253" height="26.2254" rx="2.51265" transform="matrix(-0.913282 0.407328 -0.448644 -0.893711 1567.06 640.154)" fill="#E5E5E5" fill-opacity="0.39"/>
<rect width="5.0253" height="26.2254" rx="2.51265" transform="matrix(0.913282 0.407328 0.448644 -0.893711 1550.71 640.154)" fill="#E5E5E5" fill-opacity="0.37"/>
<rect width="5.27078" height="25.0692" rx="2.63539" transform="matrix(0.0806361 0.996744 0.999989 0.00466901 1546.13 626.799)" fill="white" fill-opacity="0.42"/>
<rect width="5.0253" height="26.2254" rx="2.51265" transform="matrix(-0.913282 0.407328 -0.448644 -0.893711 1781.51 676.126)" fill="#E5E5E5" fill-opacity="0.39"/>
<rect width="5.0253" height="26.2254" rx="2.51265" transform="matrix(0.913282 0.407328 0.448644 -0.893711 1765.16 676.126)" fill="#E5E5E5" fill-opacity="0.37"/>
<rect width="5.27078" height="25.0692" rx="2.63539" transform="matrix(0.0806361 0.996744 0.999989 0.00466901 1760.58 662.771)" fill="white" fill-opacity="0.42"/>
<rect width="5.0253" height="26.2254" rx="2.51265" transform="matrix(-0.913282 0.407328 -0.448644 -0.893711 998.698 885.965)" fill="#E5E5E5" fill-opacity="0.39"/>
<rect width="5.0253" height="26.2254" rx="2.51265" transform="matrix(0.913282 0.407328 0.448644 -0.893711 982.343 885.965)" fill="#E5E5E5" fill-opacity="0.37"/>
<rect width="5.27078" height="25.0692" rx="2.63539" transform="matrix(0.0806361 0.996744 0.999989 0.00466901 977.769 872.609)" fill="white" fill-opacity="0.42"/>
<rect width="5.0253" height="26.2254" rx="2.51265" transform="matrix(-0.913282 0.407328 -0.448644 -0.893711 1499.58 799.032)" fill="#E5E5E5" fill-opacity="0.39"/>
<rect width="5.0253" height="26.2254" rx="2.51265" transform="matrix(0.913282 0.407328 0.448644 -0.893711 1483.22 799.032)" fill="#E5E5E5" fill-opacity="0.37"/>
<rect width="5.27078" height="25.0692" rx="2.63539" transform="matrix(0.0806361 0.996744 0.999989 0.00466901 1478.65 785.676)" fill="white" fill-opacity="0.42"/>
<rect width="5.0253" height="26.2254" rx="2.51265" transform="matrix(-0.913282 0.407328 -0.448644 -0.893711 1360.93 522.438)" fill="#E5E5E5" fill-opacity="0.39"/>
<rect width="5.0253" height="26.2254" rx="2.51265" transform="matrix(0.913282 0.407328 0.448644 -0.893711 1344.57 522.438)" fill="#E5E5E5" fill-opacity="0.37"/>
<rect width="5.27078" height="25.0692" rx="2.63539" transform="matrix(0.0806361 0.996744 0.999989 0.00466901 1340 509.083)" fill="white" fill-opacity="0.42"/>
<rect width="5.0253" height="26.2254" rx="2.51265" transform="matrix(-0.913282 0.407328 -0.448644 -0.893711 1768.36 361.438)" fill="#E5E5E5" fill-opacity="0.39"/>
<rect width="5.0253" height="26.2254" rx="2.51265" transform="matrix(0.913282 0.407328 0.448644 -0.893711 1752 361.438)" fill="#E5E5E5" fill-opacity="0.37"/>
<rect width="5.27078" height="25.0692" rx="2.63539" transform="matrix(0.0806361 0.996744 0.999989 0.00466901 1747.43 348.083)" fill="white" fill-opacity="0.42"/>
<rect width="5.0253" height="26.2254" rx="2.51265" transform="matrix(-0.913282 0.407328 -0.448644 -0.893711 1700.87 520.316)" fill="#E5E5E5" fill-opacity="0.39"/>
<rect width="5.0253" height="26.2254" rx="2.51265" transform="matrix(0.913282 0.407328 0.448644 -0.893711 1684.52 520.316)" fill="#E5E5E5" fill-opacity="0.37"/>
<rect width="5.27078" height="25.0692" rx="2.63539" transform="matrix(0.0806361 0.996744 0.999989 0.00466901 1679.94 506.96)" fill="white" fill-opacity="0.42"/>
<rect width="5.0253" height="26.2254" rx="2.51265" transform="matrix(-0.913282 0.407328 -0.448644 -0.893711 1829.5 737.579)" fill="#E5E5E5" fill-opacity="0.39"/>
<rect width="5.0253" height="26.2254" rx="2.51265" transform="matrix(0.913282 0.407328 0.448644 -0.893711 1813.15 737.579)" fill="#E5E5E5" fill-opacity="0.37"/>
<rect width="5.27078" height="25.0692" rx="2.63539" transform="matrix(0.0806361 0.996744 0.999989 0.00466901 1808.57 724.224)" fill="white" fill-opacity="0.42"/>
<rect width="5.0253" height="26.2254" rx="2.51265" transform="matrix(-0.913282 0.407328 -0.448644 -0.893711 2025.95 872.475)" fill="#E5E5E5" fill-opacity="0.39"/>
<rect width="5.0253" height="26.2254" rx="2.51265" transform="matrix(0.913282 0.407328 0.448644 -0.893711 2009.6 872.475)" fill="#E5E5E5" fill-opacity="0.37"/>
<rect width="5.27078" height="25.0692" rx="2.63539" transform="matrix(0.0806361 0.996744 0.999989 0.00466901 2005.03 859.12)" fill="white" fill-opacity="0.42"/>
<rect width="5.0253" height="26.2254" rx="2.51265" transform="matrix(-0.913282 0.407328 -0.448644 -0.893711 661.278 401.838)" fill="#E5E5E5" fill-opacity="0.39"/>
<rect width="5.0253" height="26.2254" rx="2.51265" transform="matrix(0.913282 0.407328 0.448644 -0.893711 644.922 401.838)" fill="#E5E5E5" fill-opacity="0.37"/>
<rect width="5.27078" height="25.0692" rx="2.63539" transform="matrix(0.0806361 0.996744 0.999989 0.00466901 640.348 388.482)" fill="white" fill-opacity="0.42"/>
<rect width="5.0253" height="26.2254" rx="2.51265" transform="matrix(-0.913282 0.407328 -0.448644 -0.893711 105.929 114.438)" fill="#E5E5E5" fill-opacity="0.39"/>
<rect width="5.0253" height="26.2254" rx="2.51265" transform="matrix(0.913282 0.407328 0.448644 -0.893711 89.574 114.438)" fill="#E5E5E5" fill-opacity="0.37"/>
<rect width="5.27078" height="25.0692" rx="2.63539" transform="matrix(0.0806361 0.996744 0.999989 0.00466901 85 101.083)" fill="white" fill-opacity="0.42"/>
<rect width="5.0253" height="26.2254" rx="2.51265" transform="matrix(-0.913282 0.407328 -0.448644 -0.893711 482.929 124.438)" fill="#E5E5E5" fill-opacity="0.39"/>
<rect width="5.0253" height="26.2254" rx="2.51265" transform="matrix(0.913282 0.407328 0.448644 -0.893711 466.574 124.438)" fill="#E5E5E5" fill-opacity="0.37"/>
<rect width="5.27078" height="25.0692" rx="2.63539" transform="matrix(0.0806361 0.996744 0.999989 0.00466901 462 111.083)" fill="white" fill-opacity="0.42"/>
<rect width="5.0253" height="26.2254" rx="2.51265" transform="matrix(-0.913282 0.407328 -0.448644 -0.893711 1056.93 78.4379)" fill="#E5E5E5" fill-opacity="0.39"/>
<rect width="5.0253" height="26.2254" rx="2.51265" transform="matrix(0.913282 0.407328 0.448644 -0.893711 1040.57 78.4379)" fill="#E5E5E5" fill-opacity="0.37"/>
<rect width="5.27078" height="25.0692" rx="2.63539" transform="matrix(0.0806361 0.996744 0.999989 0.00466901 1036 65.0827)" fill="white" fill-opacity="0.42"/>
<rect width="5.0253" height="26.2254" rx="2.51265" transform="matrix(-0.913282 0.407328 -0.448644 -0.893711 1455.93 124.438)" fill="#E5E5E5" fill-opacity="0.39"/>
<rect width="5.0253" height="26.2254" rx="2.51265" transform="matrix(0.913282 0.407328 0.448644 -0.893711 1439.57 124.438)" fill="#E5E5E5" fill-opacity="0.37"/>
<rect width="5.27078" height="25.0692" rx="2.63539" transform="matrix(0.0806361 0.996744 0.999989 0.00466901 1435 111.083)" fill="white" fill-opacity="0.42"/>
<rect width="5.0253" height="26.2254" rx="2.51265" transform="matrix(-0.913282 0.407328 -0.448644 -0.893711 1841.93 109.438)" fill="#E5E5E5" fill-opacity="0.39"/>
<rect width="5.0253" height="26.2254" rx="2.51265" transform="matrix(0.913282 0.407328 0.448644 -0.893711 1825.57 109.438)" fill="#E5E5E5" fill-opacity="0.37"/>
<rect width="5.27078" height="25.0692" rx="2.63539" transform="matrix(0.0806361 0.996744 0.999989 0.00466901 1821 96.0827)" fill="white" fill-opacity="0.42"/>
<rect width="5.0253" height="26.2254" rx="2.51265" transform="matrix(-0.913282 0.407328 -0.448644 -0.893711 1883.93 1047.44)" fill="#E5E5E5" fill-opacity="0.39"/>
<rect width="5.0253" height="26.2254" rx="2.51265" transform="matrix(0.913282 0.407328 0.448644 -0.893711 1867.57 1047.44)" fill="#E5E5E5" fill-opacity="0.37"/>
<rect width="5.27078" height="25.0692" rx="2.63539" transform="matrix(0.0806361 0.996744 0.999989 0.00466901 1863 1034.08)" fill="white" fill-opacity="0.42"/>
<rect width="5.0253" height="26.2254" rx="2.51265" transform="matrix(-0.913282 0.407328 -0.448644 -0.893711 1520.93 941.438)" fill="#E5E5E5" fill-opacity="0.39"/>
<rect width="5.0253" height="26.2254" rx="2.51265" transform="matrix(0.913282 0.407328 0.448644 -0.893711 1504.57 941.438)" fill="#E5E5E5" fill-opacity="0.37"/>
<rect width="5.27078" height="25.0692" rx="2.63539" transform="matrix(0.0806361 0.996744 0.999989 0.00466901 1500 928.083)" fill="white" fill-opacity="0.42"/>
<rect width="5.0253" height="26.2254" rx="2.51265" transform="matrix(-0.913282 0.407328 -0.448644 -0.893711 1288.93 1098.44)" fill="#E5E5E5" fill-opacity="0.39"/>
<rect width="5.0253" height="26.2254" rx="2.51265" transform="matrix(0.913282 0.407328 0.448644 -0.893711 1272.57 1098.44)" fill="#E5E5E5" fill-opacity="0.37"/>
<rect width="5.27078" height="25.0692" rx="2.63539" transform="matrix(0.0806361 0.996744 0.999989 0.00466901 1268 1085.08)" fill="white" fill-opacity="0.42"/>
<rect width="5.0253" height="26.2254" rx="2.51265" transform="matrix(-0.913282 0.407328 -0.448644 -0.893711 998.929 1118.44)" fill="#E5E5E5" fill-opacity="0.39"/>
<rect width="5.0253" height="26.2254" rx="2.51265" transform="matrix(0.913282 0.407328 0.448644 -0.893711 982.574 1118.44)" fill="#E5E5E5" fill-opacity="0.37"/>
<rect width="5.27078" height="25.0692" rx="2.63539" transform="matrix(0.0806361 0.996744 0.999989 0.00466901 978 1105.08)" fill="white" fill-opacity="0.42"/>
<rect width="5.0253" height="26.2254" rx="2.51265" transform="matrix(-0.913282 0.407328 -0.448644 -0.893711 454.978 631.343)" fill="#E5E5E5" fill-opacity="0.39"/>
<rect width="5.0253" height="26.2254" rx="2.51265" transform="matrix(0.913282 0.407328 0.448644 -0.893711 438.622 631.343)" fill="#E5E5E5" fill-opacity="0.37"/>
<rect width="5.27078" height="25.0692" rx="2.63539" transform="matrix(0.0806361 0.996744 0.999989 0.00466901 434.048 617.988)" fill="white" fill-opacity="0.42"/>
<rect width="5.0253" height="26.2254" rx="2.51265" transform="matrix(-0.913282 0.407328 -0.448644 -0.893711 384.978 808.343)" fill="#E5E5E5" fill-opacity="0.39"/>
<rect width="5.0253" height="26.2254" rx="2.51265" transform="matrix(0.913282 0.407328 0.448644 -0.893711 368.622 808.343)" fill="#E5E5E5" fill-opacity="0.37"/>
<rect width="5.27078" height="25.0692" rx="2.63539" transform="matrix(0.0806361 0.996744 0.999989 0.00466901 364.048 794.988)" fill="white" fill-opacity="0.42"/>
<rect width="5.0253" height="26.2254" rx="2.51265" transform="matrix(-0.913282 0.407328 -0.448644 -0.893711 390.929 1108.44)" fill="#E5E5E5" fill-opacity="0.39"/>
<rect width="5.0253" height="26.2254" rx="2.51265" transform="matrix(0.913282 0.407328 0.448644 -0.893711 374.574 1108.44)" fill="#E5E5E5" fill-opacity="0.37"/>
<rect width="5.27078" height="25.0692" rx="2.63539" transform="matrix(0.0806361 0.996744 0.999989 0.00466901 370 1095.08)" fill="white" fill-opacity="0.42"/>
<rect width="5.0253" height="26.2254" rx="2.51265" transform="matrix(-0.913282 0.407328 -0.448644 -0.893711 700.978 696.343)" fill="#E5E5E5" fill-opacity="0.39"/>
<rect width="5.0253" height="26.2254" rx="2.51265" transform="matrix(0.913282 0.407328 0.448644 -0.893711 684.622 696.343)" fill="#E5E5E5" fill-opacity="0.37"/>
<rect width="5.27078" height="25.0692" rx="2.63539" transform="matrix(0.0806361 0.996744 0.999989 0.00466901 680.048 682.988)" fill="white" fill-opacity="0.42"/>
<rect width="5.0253" height="26.2254" rx="2.51265" transform="matrix(-0.913282 0.407328 -0.448644 -0.893711 62.9294 1108.44)" fill="#E5E5E5" fill-opacity="0.39"/>
<rect width="5.0253" height="26.2254" rx="2.51265" transform="matrix(0.913282 0.407328 0.448644 -0.893711 46.574 1108.44)" fill="#E5E5E5" fill-opacity="0.37"/>
<rect width="5.27078" height="25.0692" rx="2.63539" transform="matrix(0.0806361 0.996744 0.999989 0.00466901 42 1095.08)" fill="white" fill-opacity="0.42"/>
<rect width="5.0253" height="26.2254" rx="2.51265" transform="matrix(-0.913282 0.407328 -0.448644 -0.893711 651.322 512.438)" fill="#E5E5E5" fill-opacity="0.39"/>
<rect width="5.0253" height="26.2254" rx="2.51265" transform="matrix(0.913282 0.407328 0.448644 -0.893711 634.966 512.438)" fill="#E5E5E5" fill-opacity="0.37"/>
<rect width="5.27078" height="25.0692" rx="2.63539" transform="matrix(0.0806361 0.996744 0.999989 0.00466901 630.392 499.083)" fill="white" fill-opacity="0.42"/>
<rect width="5.0253" height="26.2254" rx="2.51265" transform="matrix(-0.913282 0.407328 -0.448644 -0.893711 196.929 575.389)" fill="#E5E5E5" fill-opacity="0.39"/>
<rect width="5.0253" height="26.2254" rx="2.51265" transform="matrix(0.913282 0.407328 0.448644 -0.893711 180.574 575.389)" fill="#E5E5E5" fill-opacity="0.37"/>
<rect width="5.27078" height="25.0692" rx="2.63539" transform="matrix(0.0806361 0.996744 0.999989 0.00466901 176 562.034)" fill="white" fill-opacity="0.42"/>
<rect width="5.0253" height="26.2254" rx="2.51265" transform="matrix(-0.913282 0.407328 -0.448644 -0.893711 20.9294 536.734)" fill="#E5E5E5" fill-opacity="0.39"/>
<rect width="5.0253" height="26.2254" rx="2.51265" transform="matrix(0.913282 0.407328 0.448644 -0.893711 4.57401 536.734)" fill="#E5E5E5" fill-opacity="0.37"/>
<rect width="5.27078" height="25.0692" rx="2.63539" transform="matrix(0.0806361 0.996744 0.999989 0.00466901 0 523.378)" fill="white" fill-opacity="0.42"/>
<rect width="5.0253" height="26.2254" rx="2.51265" transform="matrix(-0.913282 0.407328 -0.448644 -0.893711 125.905 361.369)" fill="#E5E5E5" fill-opacity="0.39"/>
<rect width="5.0253" height="26.2254" rx="2.51265" transform="matrix(0.913282 0.407328 0.448644 -0.893711 109.549 361.369)" fill="#E5E5E5" fill-opacity="0.37"/>
<rect width="5.27078" height="25.0692" rx="2.63539" transform="matrix(0.0806361 0.996744 0.999989 0.00466901 104.975 348.013)" fill="white" fill-opacity="0.42"/>
<rect width="5.0253" height="26.2254" rx="2.51265" transform="matrix(-0.913282 0.407328 -0.448644 -0.893711 403.339 310.408)" fill="#E5E5E5" fill-opacity="0.39"/>
<rect width="5.0253" height="26.2254" rx="2.51265" transform="matrix(0.913282 0.407328 0.448644 -0.893711 386.984 310.408)" fill="#E5E5E5" fill-opacity="0.37"/>
<rect width="5.27078" height="25.0692" rx="2.63539" transform="matrix(0.0806361 0.996744 0.999989 0.00466901 382.41 297.053)" fill="white" fill-opacity="0.42"/>
<rect width="5.0253" height="26.2254" rx="2.51265" transform="matrix(-0.913282 0.407328 -0.448644 -0.893711 793.247 271.438)" fill="#E5E5E5" fill-opacity="0.39"/>
<rect width="5.0253" height="26.2254" rx="2.51265" transform="matrix(0.913282 0.407328 0.448644 -0.893711 776.891 271.438)" fill="#E5E5E5" fill-opacity="0.37"/>
<rect width="5.27078" height="25.0692" rx="2.63539" transform="matrix(0.0806361 0.996744 0.999989 0.00466901 772.317 258.083)" fill="white" fill-opacity="0.42"/>
<rect width="5.0253" height="26.2254" rx="2.51265" transform="matrix(-0.913282 0.407328 -0.448644 -0.893711 1220.65 900.953)" fill="#E5E5E5" fill-opacity="0.39"/>
<rect width="5.0253" height="26.2254" rx="2.51265" transform="matrix(0.913282 0.407328 0.448644 -0.893711 1204.29 900.953)" fill="#E5E5E5" fill-opacity="0.37"/>
<rect width="5.27078" height="25.0692" rx="2.63539" transform="matrix(0.0806361 0.996744 0.999989 0.00466901 1199.72 887.598)" fill="white" fill-opacity="0.42"/>
<rect width="5.0253" height="26.2254" rx="2.51265" transform="matrix(-0.913282 0.407328 -0.448644 -0.893711 1262.64 706.103)" fill="#E5E5E5" fill-opacity="0.39"/>
<rect width="5.0253" height="26.2254" rx="2.51265" transform="matrix(0.913282 0.407328 0.448644 -0.893711 1246.28 706.103)" fill="#E5E5E5" fill-opacity="0.37"/>
<rect width="5.27078" height="25.0692" rx="2.63539" transform="matrix(0.0806361 0.996744 0.999989 0.00466901 1241.71 692.748)" fill="white" fill-opacity="0.42"/>
<rect width="5.0253" height="26.2254" rx="2.51265" transform="matrix(-0.913282 0.407328 -0.448644 -0.893711 1951.93 521.438)" fill="#E5E5E5" fill-opacity="0.39"/>
<rect width="5.0253" height="26.2254" rx="2.51265" transform="matrix(0.913282 0.407328 0.448644 -0.893711 1935.57 521.438)" fill="#E5E5E5" fill-opacity="0.37"/>
<rect width="5.27078" height="25.0692" rx="2.63539" transform="matrix(0.0806361 0.996744 0.999989 0.00466901 1931 508.083)" fill="white" fill-opacity="0.42"/>
<rect width="5.0253" height="26.2254" rx="2.51265" transform="matrix(-0.913282 0.407328 -0.448644 -0.893711 1043.69 644.65)" fill="#E5E5E5" fill-opacity="0.39"/>
<rect width="5.0253" height="26.2254" rx="2.51265" transform="matrix(0.913282 0.407328 0.448644 -0.893711 1027.33 644.65)" fill="#E5E5E5" fill-opacity="0.37"/>
<rect width="5.27078" height="25.0692" rx="2.63539" transform="matrix(0.0806361 0.996744 0.999989 0.00466901 1022.76 631.295)" fill="white" fill-opacity="0.42"/>
</svg>
