<svg width="2105" height="1066" viewBox="0 0 2105 1066" fill="none" xmlns="http://www.w3.org/2000/svg">
<rect width="9.45926" height="49.3623" rx="4.72963" transform="matrix(-0.913295 0.407299 -0.448673 -0.893696 677.807 990.93)" fill="#E5E5E5" fill-opacity="0.76"/>
<rect width="9.45926" height="49.3623" rx="4.72963" transform="matrix(0.913295 0.407299 0.448673 -0.893696 647.02 990.93)" fill="#E5E5E5"/>
<rect width="9.92065" height="47.1891" rx="4.96033" transform="matrix(0.0806428 0.996743 0.999989 0.00466862 638.41 965.793)" fill="white"/>
<rect width="9.45926" height="49.3623" rx="4.72963" transform="matrix(-0.913295 0.407299 -0.448673 -0.893696 440.863 844.043)" fill="#E5E5E5" fill-opacity="0.76"/>
<rect width="9.45926" height="49.3623" rx="4.72963" transform="matrix(0.913295 0.407299 0.448673 -0.893696 410.076 844.043)" fill="#E5E5E5"/>
<rect width="9.92065" height="47.1891" rx="4.96033" transform="matrix(0.0806428 0.996743 0.999989 0.00466862 401.466 818.906)" fill="white"/>
<rect width="9.45926" height="49.3623" rx="4.72963" transform="matrix(-0.913295 0.407299 -0.448673 -0.893696 583.329 863.528)" fill="#E5E5E5" fill-opacity="0.76"/>
<rect width="9.45926" height="49.3623" rx="4.72963" transform="matrix(0.913295 0.407299 0.448673 -0.893696 552.542 863.528)" fill="#E5E5E5"/>
<rect width="9.92065" height="47.1891" rx="4.96033" transform="matrix(0.0806428 0.996743 0.999989 0.00466862 543.933 838.391)" fill="white"/>
<rect width="9.45926" height="49.3623" rx="4.72963" transform="matrix(-0.913295 0.407299 -0.448673 -0.893696 298.396 933.974)" fill="#E5E5E5" fill-opacity="0.76"/>
<rect width="9.45926" height="49.3623" rx="4.72963" transform="matrix(0.913295 0.407299 0.448673 -0.893696 267.61 933.974)" fill="#E5E5E5"/>
<rect width="9.92065" height="47.1891" rx="4.96033" transform="matrix(0.0806428 0.996743 0.999989 0.00466862 259 908.837)" fill="white"/>
<rect width="9.45926" height="49.3623" rx="4.72963" transform="matrix(-0.913295 0.407299 -0.448673 -0.893696 809.775 751.115)" fill="#E5E5E5" fill-opacity="0.76"/>
<rect width="9.45926" height="49.3623" rx="4.72963" transform="matrix(0.913295 0.407299 0.448673 -0.893696 778.989 751.115)" fill="#E5E5E5"/>
<rect width="9.92065" height="47.1891" rx="4.96033" transform="matrix(0.0806428 0.996743 0.999989 0.00466862 770.379 725.978)" fill="white"/>
<rect width="9.45926" height="49.3623" rx="4.72963" transform="matrix(-0.913295 0.407299 -0.448673 -0.893696 833.77 905.496)" fill="#E5E5E5" fill-opacity="0.76"/>
<rect width="9.45926" height="49.3623" rx="4.72963" transform="matrix(0.913295 0.407299 0.448673 -0.893696 802.983 905.496)" fill="#E5E5E5"/>
<rect width="9.92065" height="47.1891" rx="4.96033" transform="matrix(0.0806428 0.996743 0.999989 0.00466862 794.373 880.359)" fill="white"/>
<rect width="9.45926" height="49.3623" rx="4.72963" transform="matrix(-0.913295 0.407299 -0.448673 -0.893696 1087.4 217.551)" fill="#E5E5E5" fill-opacity="0.76"/>
<rect width="9.45926" height="49.3623" rx="4.72963" transform="matrix(0.913295 0.407299 0.448673 -0.893696 1056.61 217.551)" fill="#E5E5E5"/>
<rect width="9.92065" height="47.1891" rx="4.96033" transform="matrix(0.0806428 0.996743 0.999989 0.00466862 1048 192.414)" fill="white"/>
<rect width="9.45926" height="49.3623" rx="4.72963" transform="matrix(-0.913295 0.407299 -0.448673 -0.893696 1426.32 287.997)" fill="#E5E5E5" fill-opacity="0.76"/>
<rect width="9.45926" height="49.3623" rx="4.72963" transform="matrix(0.913295 0.407299 0.448673 -0.893696 1395.53 287.997)" fill="#E5E5E5"/>
<rect width="9.92065" height="47.1891" rx="4.96033" transform="matrix(0.0806428 0.996743 0.999989 0.00466862 1386.92 262.86)" fill="white"/>
<rect width="9.45926" height="49.3623" rx="4.72963" transform="matrix(-0.913295 0.407299 -0.448673 -0.893696 2104.16 264.016)" fill="#E5E5E5" fill-opacity="0.76"/>
<rect width="9.45926" height="49.3623" rx="4.72963" transform="matrix(0.913295 0.407299 0.448673 -0.893696 2073.37 264.016)" fill="#E5E5E5"/>
<rect width="9.45926" height="49.3623" rx="4.72963" transform="matrix(-0.913295 0.407299 -0.448673 -0.893696 1624.27 217.551)" fill="#E5E5E5" fill-opacity="0.76"/>
<rect width="9.45926" height="49.3623" rx="4.72963" transform="matrix(0.913295 0.407299 0.448673 -0.893696 1593.48 217.551)" fill="#E5E5E5"/>
<rect width="9.92065" height="47.1891" rx="4.96033" transform="matrix(0.0806428 0.996743 0.999989 0.00466862 1584.87 192.414)" fill="white"/>
<rect width="9.45926" height="49.3623" rx="4.72963" transform="matrix(-0.913295 0.407299 -0.448673 -0.893696 1975.19 189.073)" fill="#E5E5E5" fill-opacity="0.76"/>
<rect width="9.45926" height="49.3623" rx="4.72963" transform="matrix(0.913295 0.407299 0.448673 -0.893696 1944.4 189.073)" fill="#E5E5E5"/>
<rect width="9.92065" height="47.1891" rx="4.96033" transform="matrix(0.0806428 0.996743 0.999989 0.00466862 1935.79 163.936)" fill="white"/>
<rect width="9.45926" height="49.3623" rx="4.72963" transform="matrix(-0.913295 0.407299 -0.448673 -0.893696 1204.37 344.953)" fill="#E5E5E5" fill-opacity="0.76"/>
<rect width="9.45926" height="49.3623" rx="4.72963" transform="matrix(0.913295 0.407299 0.448673 -0.893696 1173.58 344.953)" fill="#E5E5E5"/>
<rect width="9.92065" height="47.1891" rx="4.96033" transform="matrix(0.0806428 0.996743 0.999989 0.00466862 1164.97 319.816)" fill="white"/>
<rect width="9.45926" height="49.3623" rx="4.72963" transform="matrix(-0.913295 0.407299 -0.448673 -0.893696 1331.84 135.115)" fill="#E5E5E5" fill-opacity="0.76"/>
<rect width="9.45926" height="49.3623" rx="4.72963" transform="matrix(0.913295 0.407299 0.448673 -0.893696 1301.05 135.115)" fill="#E5E5E5"/>
<rect width="9.92065" height="47.1891" rx="4.96033" transform="matrix(0.0806428 0.996743 0.999989 0.00466862 1292.44 109.978)" fill="white"/>
<rect width="9.45926" height="49.3623" rx="4.72963" transform="matrix(-0.913295 0.407299 -0.448673 -0.893696 1799.73 154.6)" fill="#E5E5E5" fill-opacity="0.76"/>
<rect width="9.45926" height="49.3623" rx="4.72963" transform="matrix(0.913295 0.407299 0.448673 -0.893696 1768.94 154.6)" fill="#E5E5E5"/>
<rect width="9.92065" height="47.1891" rx="4.96033" transform="matrix(0.0806428 0.996743 0.999989 0.00466862 1760.33 129.463)" fill="white"/>
<rect width="5.0253" height="26.2254" rx="2.51265" transform="matrix(-0.913282 0.407328 -0.448644 -0.893711 1567.06 585.154)" fill="#E5E5E5" fill-opacity="0.39"/>
<rect width="5.0253" height="26.2254" rx="2.51265" transform="matrix(0.913282 0.407328 0.448644 -0.893711 1550.71 585.154)" fill="#E5E5E5" fill-opacity="0.37"/>
<rect width="5.27078" height="25.0692" rx="2.63539" transform="matrix(0.0806361 0.996744 0.999989 0.00466901 1546.13 571.799)" fill="white" fill-opacity="0.42"/>
<rect width="5.0253" height="26.2254" rx="2.51265" transform="matrix(-0.913282 0.407328 -0.448644 -0.893711 1781.51 621.126)" fill="#E5E5E5" fill-opacity="0.39"/>
<rect width="5.0253" height="26.2254" rx="2.51265" transform="matrix(0.913282 0.407328 0.448644 -0.893711 1765.16 621.126)" fill="#E5E5E5" fill-opacity="0.37"/>
<rect width="5.27078" height="25.0692" rx="2.63539" transform="matrix(0.0806361 0.996744 0.999989 0.00466901 1760.58 607.771)" fill="white" fill-opacity="0.42"/>
<rect width="5.0253" height="26.2254" rx="2.51265" transform="matrix(-0.913282 0.407328 -0.448644 -0.893711 998.698 830.965)" fill="#E5E5E5" fill-opacity="0.39"/>
<rect width="5.0253" height="26.2254" rx="2.51265" transform="matrix(0.913282 0.407328 0.448644 -0.893711 982.343 830.965)" fill="#E5E5E5" fill-opacity="0.37"/>
<rect width="5.27078" height="25.0692" rx="2.63539" transform="matrix(0.0806361 0.996744 0.999989 0.00466901 977.769 817.609)" fill="white" fill-opacity="0.42"/>
<rect width="5.0253" height="26.2254" rx="2.51265" transform="matrix(-0.913282 0.407328 -0.448644 -0.893711 1499.58 744.032)" fill="#E5E5E5" fill-opacity="0.39"/>
<rect width="5.0253" height="26.2254" rx="2.51265" transform="matrix(0.913282 0.407328 0.448644 -0.893711 1483.22 744.032)" fill="#E5E5E5" fill-opacity="0.37"/>
<rect width="5.27078" height="25.0692" rx="2.63539" transform="matrix(0.0806361 0.996744 0.999989 0.00466901 1478.65 730.676)" fill="white" fill-opacity="0.42"/>
<rect width="5.0253" height="26.2254" rx="2.51265" transform="matrix(-0.913282 0.407328 -0.448644 -0.893711 1360.93 467.438)" fill="#E5E5E5" fill-opacity="0.39"/>
<rect width="5.0253" height="26.2254" rx="2.51265" transform="matrix(0.913282 0.407328 0.448644 -0.893711 1344.57 467.438)" fill="#E5E5E5" fill-opacity="0.37"/>
<rect width="5.27078" height="25.0692" rx="2.63539" transform="matrix(0.0806361 0.996744 0.999989 0.00466901 1340 454.083)" fill="white" fill-opacity="0.42"/>
<rect width="5.0253" height="26.2254" rx="2.51265" transform="matrix(-0.913282 0.407328 -0.448644 -0.893711 1768.36 306.438)" fill="#E5E5E5" fill-opacity="0.39"/>
<rect width="5.0253" height="26.2254" rx="2.51265" transform="matrix(0.913282 0.407328 0.448644 -0.893711 1752 306.438)" fill="#E5E5E5" fill-opacity="0.37"/>
<rect width="5.27078" height="25.0692" rx="2.63539" transform="matrix(0.0806361 0.996744 0.999989 0.00466901 1747.43 293.083)" fill="white" fill-opacity="0.42"/>
<rect width="5.0253" height="26.2254" rx="2.51265" transform="matrix(-0.913282 0.407328 -0.448644 -0.893711 1700.87 465.316)" fill="#E5E5E5" fill-opacity="0.39"/>
<rect width="5.0253" height="26.2254" rx="2.51265" transform="matrix(0.913282 0.407328 0.448644 -0.893711 1684.52 465.316)" fill="#E5E5E5" fill-opacity="0.37"/>
<rect width="5.27078" height="25.0692" rx="2.63539" transform="matrix(0.0806361 0.996744 0.999989 0.00466901 1679.94 451.96)" fill="white" fill-opacity="0.42"/>
<rect width="5.0253" height="26.2254" rx="2.51265" transform="matrix(-0.913282 0.407328 -0.448644 -0.893711 1829.5 682.579)" fill="#E5E5E5" fill-opacity="0.39"/>
<rect width="5.0253" height="26.2254" rx="2.51265" transform="matrix(0.913282 0.407328 0.448644 -0.893711 1813.15 682.579)" fill="#E5E5E5" fill-opacity="0.37"/>
<rect width="5.27078" height="25.0692" rx="2.63539" transform="matrix(0.0806361 0.996744 0.999989 0.00466901 1808.57 669.224)" fill="white" fill-opacity="0.42"/>
<rect width="5.0253" height="26.2254" rx="2.51265" transform="matrix(-0.913282 0.407328 -0.448644 -0.893711 2025.95 817.475)" fill="#E5E5E5" fill-opacity="0.39"/>
<rect width="5.0253" height="26.2254" rx="2.51265" transform="matrix(0.913282 0.407328 0.448644 -0.893711 2009.6 817.475)" fill="#E5E5E5" fill-opacity="0.37"/>
<rect width="5.27078" height="25.0692" rx="2.63539" transform="matrix(0.0806361 0.996744 0.999989 0.00466901 2005.03 804.12)" fill="white" fill-opacity="0.42"/>
<rect width="5.0253" height="26.2254" rx="2.51265" transform="matrix(-0.913282 0.407328 -0.448644 -0.893711 661.278 346.838)" fill="#E5E5E5" fill-opacity="0.39"/>
<rect width="5.0253" height="26.2254" rx="2.51265" transform="matrix(0.913282 0.407328 0.448644 -0.893711 644.922 346.838)" fill="#E5E5E5" fill-opacity="0.37"/>
<rect width="5.27078" height="25.0692" rx="2.63539" transform="matrix(0.0806361 0.996744 0.999989 0.00466901 640.348 333.482)" fill="white" fill-opacity="0.42"/>
<rect width="5.0253" height="26.2254" rx="2.51265" transform="matrix(-0.913282 0.407328 -0.448644 -0.893711 105.929 59.4379)" fill="#E5E5E5" fill-opacity="0.39"/>
<rect width="5.0253" height="26.2254" rx="2.51265" transform="matrix(0.913282 0.407328 0.448644 -0.893711 89.574 59.4379)" fill="#E5E5E5" fill-opacity="0.37"/>
<rect width="5.27078" height="25.0692" rx="2.63539" transform="matrix(0.0806361 0.996744 0.999989 0.00466901 85 46.0827)" fill="white" fill-opacity="0.42"/>
<rect width="5.0253" height="26.2254" rx="2.51265" transform="matrix(-0.913282 0.407328 -0.448644 -0.893711 482.929 69.4379)" fill="#E5E5E5" fill-opacity="0.39"/>
<rect width="5.0253" height="26.2254" rx="2.51265" transform="matrix(0.913282 0.407328 0.448644 -0.893711 466.574 69.4379)" fill="#E5E5E5" fill-opacity="0.37"/>
<rect width="5.27078" height="25.0692" rx="2.63539" transform="matrix(0.0806361 0.996744 0.999989 0.00466901 462 56.0827)" fill="white" fill-opacity="0.42"/>
<rect width="5.0253" height="26.2254" rx="2.51265" transform="matrix(-0.913282 0.407328 -0.448644 -0.893711 1056.93 23.4379)" fill="#E5E5E5" fill-opacity="0.39"/>
<rect width="5.0253" height="26.2254" rx="2.51265" transform="matrix(0.913282 0.407328 0.448644 -0.893711 1040.57 23.4379)" fill="#E5E5E5" fill-opacity="0.37"/>
<rect width="5.27078" height="25.0692" rx="2.63539" transform="matrix(0.0806361 0.996744 0.999989 0.00466901 1036 10.0827)" fill="white" fill-opacity="0.42"/>
<rect width="5.0253" height="26.2254" rx="2.51265" transform="matrix(-0.913282 0.407328 -0.448644 -0.893711 1455.93 69.4379)" fill="#E5E5E5" fill-opacity="0.39"/>
<rect width="5.0253" height="26.2254" rx="2.51265" transform="matrix(0.913282 0.407328 0.448644 -0.893711 1439.57 69.4379)" fill="#E5E5E5" fill-opacity="0.37"/>
<rect width="5.27078" height="25.0692" rx="2.63539" transform="matrix(0.0806361 0.996744 0.999989 0.00466901 1435 56.0827)" fill="white" fill-opacity="0.42"/>
<rect width="5.0253" height="26.2254" rx="2.51265" transform="matrix(-0.913282 0.407328 -0.448644 -0.893711 1841.93 54.4379)" fill="#E5E5E5" fill-opacity="0.39"/>
<rect width="5.0253" height="26.2254" rx="2.51265" transform="matrix(0.913282 0.407328 0.448644 -0.893711 1825.57 54.4379)" fill="#E5E5E5" fill-opacity="0.37"/>
<rect width="5.27078" height="25.0692" rx="2.63539" transform="matrix(0.0806361 0.996744 0.999989 0.00466901 1821 41.0827)" fill="white" fill-opacity="0.42"/>
<rect width="5.0253" height="26.2254" rx="2.51265" transform="matrix(-0.913282 0.407328 -0.448644 -0.893711 1883.93 992.438)" fill="#E5E5E5" fill-opacity="0.39"/>
<rect width="5.0253" height="26.2254" rx="2.51265" transform="matrix(0.913282 0.407328 0.448644 -0.893711 1867.57 992.438)" fill="#E5E5E5" fill-opacity="0.37"/>
<rect width="5.27078" height="25.0692" rx="2.63539" transform="matrix(0.0806361 0.996744 0.999989 0.00466901 1863 979.083)" fill="white" fill-opacity="0.42"/>
<rect width="5.0253" height="26.2254" rx="2.51265" transform="matrix(-0.913282 0.407328 -0.448644 -0.893711 1520.93 886.438)" fill="#E5E5E5" fill-opacity="0.39"/>
<rect width="5.0253" height="26.2254" rx="2.51265" transform="matrix(0.913282 0.407328 0.448644 -0.893711 1504.57 886.438)" fill="#E5E5E5" fill-opacity="0.37"/>
<rect width="5.27078" height="25.0692" rx="2.63539" transform="matrix(0.0806361 0.996744 0.999989 0.00466901 1500 873.083)" fill="white" fill-opacity="0.42"/>
<rect width="5.0253" height="26.2254" rx="2.51265" transform="matrix(-0.913282 0.407328 -0.448644 -0.893711 1288.93 1043.44)" fill="#E5E5E5" fill-opacity="0.39"/>
<rect width="5.0253" height="26.2254" rx="2.51265" transform="matrix(0.913282 0.407328 0.448644 -0.893711 1272.57 1043.44)" fill="#E5E5E5" fill-opacity="0.37"/>
<rect width="5.27078" height="25.0692" rx="2.63539" transform="matrix(0.0806361 0.996744 0.999989 0.00466901 1268 1030.08)" fill="white" fill-opacity="0.42"/>
<rect width="5.0253" height="26.2254" rx="2.51265" transform="matrix(-0.913282 0.407328 -0.448644 -0.893711 998.929 1063.44)" fill="#E5E5E5" fill-opacity="0.39"/>
<rect width="5.0253" height="26.2254" rx="2.51265" transform="matrix(0.913282 0.407328 0.448644 -0.893711 982.574 1063.44)" fill="#E5E5E5" fill-opacity="0.37"/>
<rect width="5.27078" height="25.0692" rx="2.63539" transform="matrix(0.0806361 0.996744 0.999989 0.00466901 978 1050.08)" fill="white" fill-opacity="0.42"/>
<rect width="5.0253" height="26.2254" rx="2.51265" transform="matrix(-0.913282 0.407328 -0.448644 -0.893711 454.978 576.343)" fill="#E5E5E5" fill-opacity="0.39"/>
<rect width="5.0253" height="26.2254" rx="2.51265" transform="matrix(0.913282 0.407328 0.448644 -0.893711 438.622 576.343)" fill="#E5E5E5" fill-opacity="0.37"/>
<rect width="5.27078" height="25.0692" rx="2.63539" transform="matrix(0.0806361 0.996744 0.999989 0.00466901 434.048 562.988)" fill="white" fill-opacity="0.42"/>
<rect width="5.0253" height="26.2254" rx="2.51265" transform="matrix(-0.913282 0.407328 -0.448644 -0.893711 384.978 753.343)" fill="#E5E5E5" fill-opacity="0.39"/>
<rect width="5.0253" height="26.2254" rx="2.51265" transform="matrix(0.913282 0.407328 0.448644 -0.893711 368.622 753.343)" fill="#E5E5E5" fill-opacity="0.37"/>
<rect width="5.27078" height="25.0692" rx="2.63539" transform="matrix(0.0806361 0.996744 0.999989 0.00466901 364.048 739.988)" fill="white" fill-opacity="0.42"/>
<rect width="5.0253" height="26.2254" rx="2.51265" transform="matrix(-0.913282 0.407328 -0.448644 -0.893711 390.929 1053.44)" fill="#E5E5E5" fill-opacity="0.39"/>
<rect width="5.0253" height="26.2254" rx="2.51265" transform="matrix(0.913282 0.407328 0.448644 -0.893711 374.574 1053.44)" fill="#E5E5E5" fill-opacity="0.37"/>
<rect width="5.27078" height="25.0692" rx="2.63539" transform="matrix(0.0806361 0.996744 0.999989 0.00466901 370 1040.08)" fill="white" fill-opacity="0.42"/>
<rect width="5.0253" height="26.2254" rx="2.51265" transform="matrix(-0.913282 0.407328 -0.448644 -0.893711 700.978 641.343)" fill="#E5E5E5" fill-opacity="0.39"/>
<rect width="5.0253" height="26.2254" rx="2.51265" transform="matrix(0.913282 0.407328 0.448644 -0.893711 684.622 641.343)" fill="#E5E5E5" fill-opacity="0.37"/>
<rect width="5.27078" height="25.0692" rx="2.63539" transform="matrix(0.0806361 0.996744 0.999989 0.00466901 680.048 627.988)" fill="white" fill-opacity="0.42"/>
<rect width="5.0253" height="26.2254" rx="2.51265" transform="matrix(-0.913282 0.407328 -0.448644 -0.893711 62.9294 1053.44)" fill="#E5E5E5" fill-opacity="0.39"/>
<rect width="5.0253" height="26.2254" rx="2.51265" transform="matrix(0.913282 0.407328 0.448644 -0.893711 46.574 1053.44)" fill="#E5E5E5" fill-opacity="0.37"/>
<rect width="5.27078" height="25.0692" rx="2.63539" transform="matrix(0.0806361 0.996744 0.999989 0.00466901 42 1040.08)" fill="white" fill-opacity="0.42"/>
<rect width="5.0253" height="26.2254" rx="2.51265" transform="matrix(-0.913282 0.407328 -0.448644 -0.893711 651.322 457.438)" fill="#E5E5E5" fill-opacity="0.39"/>
<rect width="5.0253" height="26.2254" rx="2.51265" transform="matrix(0.913282 0.407328 0.448644 -0.893711 634.966 457.438)" fill="#E5E5E5" fill-opacity="0.37"/>
<rect width="5.27078" height="25.0692" rx="2.63539" transform="matrix(0.0806361 0.996744 0.999989 0.00466901 630.392 444.083)" fill="white" fill-opacity="0.42"/>
<rect width="5.0253" height="26.2254" rx="2.51265" transform="matrix(-0.913282 0.407328 -0.448644 -0.893711 196.929 520.389)" fill="#E5E5E5" fill-opacity="0.39"/>
<rect width="5.0253" height="26.2254" rx="2.51265" transform="matrix(0.913282 0.407328 0.448644 -0.893711 180.574 520.389)" fill="#E5E5E5" fill-opacity="0.37"/>
<rect width="5.27078" height="25.0692" rx="2.63539" transform="matrix(0.0806361 0.996744 0.999989 0.00466901 176 507.034)" fill="white" fill-opacity="0.42"/>
<rect width="5.0253" height="26.2254" rx="2.51265" transform="matrix(-0.913282 0.407328 -0.448644 -0.893711 20.9294 481.734)" fill="#E5E5E5" fill-opacity="0.39"/>
<rect width="5.0253" height="26.2254" rx="2.51265" transform="matrix(0.913282 0.407328 0.448644 -0.893711 4.57401 481.734)" fill="#E5E5E5" fill-opacity="0.37"/>
<rect width="5.27078" height="25.0692" rx="2.63539" transform="matrix(0.0806361 0.996744 0.999989 0.00466901 0 468.378)" fill="white" fill-opacity="0.42"/>
<rect width="5.0253" height="26.2254" rx="2.51265" transform="matrix(-0.913282 0.407328 -0.448644 -0.893711 125.905 306.369)" fill="#E5E5E5" fill-opacity="0.39"/>
<rect width="5.0253" height="26.2254" rx="2.51265" transform="matrix(0.913282 0.407328 0.448644 -0.893711 109.549 306.369)" fill="#E5E5E5" fill-opacity="0.37"/>
<rect width="5.27078" height="25.0692" rx="2.63539" transform="matrix(0.0806361 0.996744 0.999989 0.00466901 104.975 293.013)" fill="white" fill-opacity="0.42"/>
<rect width="5.0253" height="26.2254" rx="2.51265" transform="matrix(-0.913282 0.407328 -0.448644 -0.893711 403.339 255.408)" fill="#E5E5E5" fill-opacity="0.39"/>
<rect width="5.0253" height="26.2254" rx="2.51265" transform="matrix(0.913282 0.407328 0.448644 -0.893711 386.984 255.408)" fill="#E5E5E5" fill-opacity="0.37"/>
<rect width="5.27078" height="25.0692" rx="2.63539" transform="matrix(0.0806361 0.996744 0.999989 0.00466901 382.41 242.053)" fill="white" fill-opacity="0.42"/>
<rect width="5.0253" height="26.2254" rx="2.51265" transform="matrix(-0.913282 0.407328 -0.448644 -0.893711 793.247 216.438)" fill="#E5E5E5" fill-opacity="0.39"/>
<rect width="5.0253" height="26.2254" rx="2.51265" transform="matrix(0.913282 0.407328 0.448644 -0.893711 776.891 216.438)" fill="#E5E5E5" fill-opacity="0.37"/>
<rect width="5.27078" height="25.0692" rx="2.63539" transform="matrix(0.0806361 0.996744 0.999989 0.00466901 772.317 203.083)" fill="white" fill-opacity="0.42"/>
<rect width="5.0253" height="26.2254" rx="2.51265" transform="matrix(-0.913282 0.407328 -0.448644 -0.893711 1220.65 845.953)" fill="#E5E5E5" fill-opacity="0.39"/>
<rect width="5.0253" height="26.2254" rx="2.51265" transform="matrix(0.913282 0.407328 0.448644 -0.893711 1204.29 845.953)" fill="#E5E5E5" fill-opacity="0.37"/>
<rect width="5.27078" height="25.0692" rx="2.63539" transform="matrix(0.0806361 0.996744 0.999989 0.00466901 1199.72 832.598)" fill="white" fill-opacity="0.42"/>
<rect width="5.0253" height="26.2254" rx="2.51265" transform="matrix(-0.913282 0.407328 -0.448644 -0.893711 1262.64 651.103)" fill="#E5E5E5" fill-opacity="0.39"/>
<rect width="5.0253" height="26.2254" rx="2.51265" transform="matrix(0.913282 0.407328 0.448644 -0.893711 1246.28 651.103)" fill="#E5E5E5" fill-opacity="0.37"/>
<rect width="5.27078" height="25.0692" rx="2.63539" transform="matrix(0.0806361 0.996744 0.999989 0.00466901 1241.71 637.748)" fill="white" fill-opacity="0.42"/>
<rect width="5.0253" height="26.2254" rx="2.51265" transform="matrix(-0.913282 0.407328 -0.448644 -0.893711 1951.93 466.438)" fill="#E5E5E5" fill-opacity="0.39"/>
<rect width="5.0253" height="26.2254" rx="2.51265" transform="matrix(0.913282 0.407328 0.448644 -0.893711 1935.57 466.438)" fill="#E5E5E5" fill-opacity="0.37"/>
<rect width="5.27078" height="25.0692" rx="2.63539" transform="matrix(0.0806361 0.996744 0.999989 0.00466901 1931 453.083)" fill="white" fill-opacity="0.42"/>
<rect width="5.0253" height="26.2254" rx="2.51265" transform="matrix(-0.913282 0.407328 -0.448644 -0.893711 1043.69 589.65)" fill="#E5E5E5" fill-opacity="0.39"/>
<rect width="5.0253" height="26.2254" rx="2.51265" transform="matrix(0.913282 0.407328 0.448644 -0.893711 1027.33 589.65)" fill="#E5E5E5" fill-opacity="0.37"/>
<rect width="5.27078" height="25.0692" rx="2.63539" transform="matrix(0.0806361 0.996744 0.999989 0.00466901 1022.76 576.295)" fill="white" fill-opacity="0.42"/>
</svg>
