<svg width="1500" height="500" viewBox="0 0 1500 500" fill="none" xmlns="http://www.w3.org/2000/svg">
<path d="M1500 0H0V500H1500V0Z" fill="black"/>
<path d="M508.096 312.184C508.877 313.741 510.8 314.428 512.391 313.718C513.981 313.008 514.638 311.171 513.856 309.614L501.917 285.82C501.136 284.263 499.213 283.576 497.622 284.286C496.031 284.995 495.375 286.833 496.156 288.39L508.096 312.184Z" fill="#E5E5E5" fill-opacity="0.76"/>
<path d="M501.916 312.184C501.135 313.741 499.212 314.428 497.621 313.718C496.031 313.008 495.374 311.171 496.156 309.614L508.095 285.82C508.876 284.263 510.799 283.576 512.39 284.286C513.981 284.995 514.637 286.833 513.856 288.39L501.916 312.184Z" fill="#E5E5E5"/>
<path d="M492.843 302.275C491.015 302.266 489.414 300.782 489.267 298.961C489.119 297.139 490.482 295.669 492.309 295.677L517.157 295.794C518.985 295.802 520.586 297.286 520.733 299.108C520.881 300.929 519.518 302.399 517.691 302.391L492.843 302.275Z" fill="white"/>
<path d="M317.096 263.184C317.877 264.741 319.8 265.428 321.391 264.718C322.981 264.008 323.638 262.17 322.856 260.613L310.917 236.819C310.136 235.262 308.213 234.575 306.622 235.285C305.031 235.995 304.375 237.833 305.156 239.39L317.096 263.184Z" fill="#E5E5E5" fill-opacity="0.76"/>
<path d="M310.916 263.184C310.135 264.741 308.212 265.428 306.621 264.718C305.031 264.008 304.374 262.17 305.156 260.613L317.095 236.819C317.876 235.262 319.799 234.575 321.39 235.285C322.981 235.995 323.637 237.833 322.856 239.39L310.916 263.184Z" fill="#E5E5E5"/>
<path d="M301.843 253.274C300.015 253.266 298.414 251.782 298.267 249.96C298.119 248.138 299.482 246.668 301.309 246.677L326.157 246.793C327.985 246.802 329.586 248.285 329.733 250.107C329.881 251.929 328.518 253.399 326.691 253.39L301.843 253.274Z" fill="white"/>
<path d="M445.096 227.184C445.877 228.741 447.8 229.428 449.391 228.718C450.981 228.008 451.638 226.171 450.856 224.614L438.917 200.82C438.136 199.263 436.213 198.576 434.622 199.286C433.031 199.995 432.375 201.833 433.156 203.39L445.096 227.184Z" fill="#E5E5E5" fill-opacity="0.76"/>
<path d="M438.916 227.184C438.135 228.741 436.212 229.428 434.621 228.718C433.031 228.008 432.374 226.171 433.156 224.614L445.095 200.82C445.876 199.263 447.799 198.576 449.39 199.286C450.981 199.995 451.637 201.833 450.856 203.39L438.916 227.184Z" fill="#E5E5E5"/>
<path d="M429.843 217.275C428.015 217.266 426.414 215.782 426.267 213.961C426.119 212.139 427.482 210.669 429.309 210.677L454.157 210.794C455.985 210.802 457.586 212.286 457.733 214.108C457.881 215.929 456.518 217.399 454.691 217.391L429.843 217.275Z" fill="white"/>
<path d="M207.096 239.184C207.877 240.741 209.8 241.428 211.391 240.718C212.981 240.008 213.638 238.17 212.856 236.613L200.917 212.819C200.136 211.262 198.213 210.575 196.622 211.285C195.031 211.995 194.375 213.833 195.156 215.39L207.096 239.184Z" fill="#E5E5E5" fill-opacity="0.76"/>
<path d="M200.916 239.184C200.135 240.741 198.212 241.428 196.621 240.718C195.031 240.008 194.374 238.17 195.156 236.613L207.095 212.819C207.876 211.262 209.799 210.575 211.39 211.285C212.981 211.995 213.637 213.833 212.856 215.39L200.916 239.184Z" fill="#E5E5E5"/>
<path d="M191.843 229.274C190.015 229.266 188.414 227.782 188.267 225.96C188.119 224.138 189.482 222.668 191.309 222.677L216.157 222.793C217.985 222.802 219.586 224.285 219.733 226.107C219.881 227.929 218.518 229.399 216.691 229.39L191.843 229.274Z" fill="white"/>
<path d="M596.096 152.184C596.877 153.741 598.8 154.428 600.391 153.718C601.981 153.008 602.638 151.171 601.856 149.614L589.917 125.82C589.136 124.263 587.213 123.576 585.622 124.286C584.031 124.995 583.375 126.833 584.156 128.39L596.096 152.184Z" fill="#E5E5E5" fill-opacity="0.76"/>
<path d="M589.916 152.184C589.135 153.741 587.212 154.428 585.621 153.718C584.031 153.008 583.374 151.171 584.156 149.614L596.095 125.82C596.876 124.263 598.799 123.576 600.39 124.286C601.981 124.995 602.637 126.833 601.856 128.39L589.916 152.184Z" fill="#E5E5E5"/>
<path d="M580.843 142.275C579.015 142.266 577.414 140.782 577.267 138.961C577.119 137.139 578.482 135.669 580.309 135.677L605.157 135.794C606.985 135.802 608.586 137.286 608.733 139.108C608.881 140.929 607.518 142.399 605.691 142.391L580.843 142.275Z" fill="white"/>
<path d="M612.096 255.184C612.877 256.741 614.8 257.428 616.391 256.718C617.981 256.008 618.638 254.171 617.856 252.614L605.917 228.82C605.136 227.263 603.213 226.576 601.622 227.286C600.031 227.995 599.375 229.833 600.156 231.39L612.096 255.184Z" fill="#E5E5E5" fill-opacity="0.76"/>
<path d="M605.916 255.184C605.135 256.741 603.212 257.428 601.621 256.718C600.031 256.008 599.374 254.171 600.156 252.614L612.095 228.82C612.876 227.263 614.799 226.576 616.39 227.286C617.981 227.995 618.637 229.833 617.856 231.39L605.916 255.184Z" fill="#E5E5E5"/>
<path d="M596.843 245.275C595.015 245.266 593.414 243.782 593.267 241.961C593.119 240.139 594.482 238.669 596.309 238.677L621.157 238.794C622.985 238.802 624.586 240.286 624.733 242.108C624.881 243.929 623.518 245.399 621.691 245.391L596.843 245.275Z" fill="white"/>
<path d="M777.096 105.184C777.877 106.741 779.8 107.428 781.391 106.718C782.981 106.008 783.638 104.171 782.856 102.614L770.917 78.8195C770.136 77.2626 768.213 76.5758 766.622 77.2857C765.031 77.9955 764.375 79.8331 765.156 81.39L777.096 105.184Z" fill="#E5E5E5" fill-opacity="0.76"/>
<path d="M770.916 105.184C770.135 106.741 768.212 107.428 766.621 106.718C765.031 106.008 764.374 104.171 765.156 102.614L777.095 78.8195C777.876 77.2626 779.799 76.5758 781.39 77.2857C782.981 77.9955 783.637 79.8331 782.856 81.39L770.916 105.184Z" fill="#E5E5E5"/>
<path d="M761.843 95.2743C760.015 95.2657 758.414 93.7819 758.267 91.9602C758.119 90.1384 759.482 88.6684 761.309 88.677L786.157 88.793C787.985 88.8016 789.586 90.2853 789.733 92.1071C789.881 93.9289 788.518 95.3989 786.691 95.3903L761.843 95.2743Z" fill="white"/>
<path d="M1003.09 152.184C1003.88 153.741 1005.8 154.428 1007.39 153.718C1008.98 153.008 1009.64 151.171 1008.86 149.614L996.916 125.82C996.135 124.263 994.212 123.576 992.621 124.286C991.03 124.995 990.374 126.833 991.155 128.39L1003.09 152.184Z" fill="#E5E5E5" fill-opacity="0.76"/>
<path d="M996.916 152.184C996.135 153.741 994.212 154.428 992.621 153.718C991.031 153.008 990.374 151.171 991.156 149.614L1003.09 125.82C1003.88 124.263 1005.8 123.576 1007.39 124.286C1008.98 124.995 1009.64 126.833 1008.86 128.39L996.916 152.184Z" fill="#E5E5E5"/>
<path d="M987.843 142.275C986.015 142.266 984.414 140.782 984.267 138.961C984.119 137.139 985.482 135.669 987.309 135.677L1012.16 135.794C1013.98 135.802 1015.59 137.286 1015.73 139.108C1015.88 140.929 1014.52 142.399 1012.69 142.391L987.843 142.275Z" fill="white"/>
<path d="M1455.09 136.184C1455.88 137.741 1457.8 138.428 1459.39 137.718C1460.98 137.008 1461.64 135.171 1460.86 133.614L1448.92 109.82C1448.13 108.263 1446.21 107.576 1444.62 108.286C1443.03 108.995 1442.37 110.833 1443.16 112.39L1455.09 136.184Z" fill="#E5E5E5" fill-opacity="0.76"/>
<path d="M1448.92 136.184C1448.13 137.741 1446.21 138.428 1444.62 137.718C1443.03 137.008 1442.37 135.171 1443.15 133.614L1455.09 109.82C1455.88 108.263 1457.8 107.576 1459.39 108.286C1460.98 108.995 1461.64 110.833 1460.85 112.39L1448.92 136.184Z" fill="#E5E5E5"/>
<path d="M1439.84 126.275C1438.02 126.266 1436.41 124.782 1436.27 122.961C1436.12 121.139 1437.48 119.669 1439.31 119.677L1464.16 119.794C1465.98 119.802 1467.59 121.286 1467.73 123.108C1467.88 124.929 1466.52 126.399 1464.69 126.391L1439.84 126.275Z" fill="white"/>
<path d="M1135.09 105.184C1135.88 106.741 1137.8 107.428 1139.39 106.718C1140.98 106.008 1141.64 104.171 1140.86 102.614L1128.92 78.8195C1128.13 77.2626 1126.21 76.5758 1124.62 77.2857C1123.03 77.9955 1122.37 79.8331 1123.16 81.39L1135.09 105.184Z" fill="#E5E5E5" fill-opacity="0.76"/>
<path d="M1128.92 105.184C1128.13 106.741 1126.21 107.428 1124.62 106.718C1123.03 106.008 1122.37 104.171 1123.15 102.614L1135.09 78.8195C1135.88 77.2626 1137.8 76.5758 1139.39 77.2857C1140.98 77.9955 1141.64 79.8331 1140.85 81.39L1128.92 105.184Z" fill="#E5E5E5"/>
<path d="M1119.84 95.2743C1118.02 95.2657 1116.41 93.7819 1116.27 91.9602C1116.12 90.1384 1117.48 88.6684 1119.31 88.677L1144.16 88.793C1145.98 88.8016 1147.59 90.2853 1147.73 92.1071C1147.88 93.9289 1146.52 95.3989 1144.69 95.3903L1119.84 95.2743Z" fill="white"/>
<path d="M1369.09 86.1839C1369.88 87.7408 1371.8 88.4276 1373.39 87.7177C1374.98 87.0079 1375.64 85.1703 1374.86 83.6134L1362.92 59.819C1362.13 58.2621 1360.21 57.5753 1358.62 58.2852C1357.03 58.995 1356.37 60.8326 1357.16 62.3895L1369.09 86.1839Z" fill="#E5E5E5" fill-opacity="0.76"/>
<path d="M1362.92 86.1839C1362.13 87.7408 1360.21 88.4276 1358.62 87.7177C1357.03 87.0079 1356.37 85.1703 1357.15 83.6134L1369.09 59.819C1369.88 58.2621 1371.8 57.5753 1373.39 58.2852C1374.98 58.995 1375.64 60.8326 1374.85 62.3895L1362.92 86.1839Z" fill="#E5E5E5"/>
<path d="M1353.84 76.2743C1352.02 76.2657 1350.41 74.7819 1350.27 72.9602C1350.12 71.1384 1351.48 69.6684 1353.31 69.677L1378.16 69.793C1379.98 69.8016 1381.59 71.2853 1381.73 73.1071C1381.88 74.9289 1380.52 76.3989 1378.69 76.3903L1353.84 76.2743Z" fill="white"/>
<path d="M855.096 190.184C855.877 191.741 857.8 192.428 859.391 191.718C860.981 191.008 861.638 189.171 860.856 187.614L848.917 163.82C848.136 162.263 846.213 161.576 844.622 162.286C843.031 162.995 842.375 164.833 843.156 166.39L855.096 190.184Z" fill="#E5E5E5" fill-opacity="0.76"/>
<path d="M848.916 190.184C848.135 191.741 846.212 192.428 844.621 191.718C843.031 191.008 842.374 189.171 843.156 187.614L855.095 163.82C855.876 162.263 857.799 161.576 859.39 162.286C860.981 162.995 861.637 164.833 860.856 166.39L848.916 190.184Z" fill="#E5E5E5"/>
<path d="M839.843 180.275C838.015 180.266 836.414 178.782 836.267 176.961C836.119 175.139 837.482 173.669 839.309 173.677L864.157 173.794C865.985 173.802 867.586 175.286 867.733 177.108C867.881 178.929 866.518 180.399 864.691 180.391L839.843 180.275Z" fill="white"/>
<path d="M940.096 50.184C940.877 51.7409 942.8 52.4277 944.391 51.7179C945.981 51.008 946.638 49.1705 945.856 47.6135L933.917 23.8192C933.136 22.2622 931.213 21.5755 929.622 22.2853C928.031 22.9951 927.375 24.8327 928.156 26.3896L940.096 50.184Z" fill="#E5E5E5" fill-opacity="0.76"/>
<path d="M933.916 50.184C933.135 51.7409 931.212 52.4277 929.621 51.7179C928.031 51.008 927.374 49.1705 928.156 47.6135L940.095 23.8192C940.876 22.2622 942.799 21.5755 944.39 22.2853C945.981 22.9951 946.637 24.8327 945.856 26.3896L933.916 50.184Z" fill="#E5E5E5"/>
<path d="M924.843 40.2743C923.015 40.2657 921.414 38.7819 921.267 36.9602C921.119 35.1384 922.482 33.6684 924.309 33.677L949.157 33.793C950.985 33.8016 952.586 35.2853 952.733 37.1071C952.881 38.9289 951.518 40.3989 949.691 40.3903L924.843 40.2743Z" fill="white"/>
<path d="M1252.09 63.184C1252.88 64.7409 1254.8 65.4277 1256.39 64.7179C1257.98 64.008 1258.64 62.1705 1257.86 60.6135L1245.92 36.8192C1245.13 35.2622 1243.21 34.5755 1241.62 35.2853C1240.03 35.9951 1239.37 37.8327 1240.16 39.3896L1252.09 63.184Z" fill="#E5E5E5" fill-opacity="0.76"/>
<path d="M1245.92 63.184C1245.13 64.7409 1243.21 65.4277 1241.62 64.7179C1240.03 64.008 1239.37 62.1705 1240.15 60.6135L1252.09 36.8192C1252.88 35.2622 1254.8 34.5755 1256.39 35.2853C1257.98 35.9951 1258.64 37.8327 1257.85 39.3896L1245.92 63.184Z" fill="#E5E5E5"/>
<path d="M1236.84 53.2743C1235.02 53.2657 1233.41 51.7819 1233.27 49.9602C1233.12 48.1384 1234.48 46.6684 1236.31 46.677L1261.16 46.793C1262.98 46.8016 1264.59 48.2853 1264.73 50.1071C1264.88 51.9289 1263.52 53.3989 1261.69 53.3903L1236.84 53.2743Z" fill="white"/>
<path d="M510.426 379.32L510.426 379.32C511.271 378.943 511.62 377.966 511.205 377.139L504.862 364.497C504.447 363.67 503.425 363.305 502.58 363.683C501.735 364.06 501.386 365.036 501.801 365.863L508.144 378.505C508.559 379.332 509.581 379.697 510.426 379.32Z" fill="#E5E5E5" fill-opacity="0.39"/>
<path d="M502.58 379.32L502.58 379.32C501.735 378.943 501.386 377.966 501.801 377.139L508.144 364.497C508.559 363.67 509.581 363.305 510.426 363.683C511.271 364.06 511.62 365.036 511.205 365.863L504.862 378.505C504.447 379.332 503.425 379.697 502.58 379.32Z" fill="#E5E5E5" fill-opacity="0.37"/>
<path d="M500.042 373.24C499.071 373.236 498.22 372.447 498.142 371.48C498.063 370.512 498.787 369.731 499.758 369.735L512.958 369.797C513.929 369.801 514.78 370.59 514.858 371.558C514.937 372.526 514.213 373.307 513.242 373.302L500.042 373.24Z" fill="white" fill-opacity="0.42"/>
<path d="M207.426 421.32L207.426 421.32C208.271 420.943 208.62 419.966 208.205 419.139L201.862 406.497C201.447 405.67 200.425 405.305 199.58 405.683C198.735 406.06 198.386 407.036 198.801 407.863L205.144 420.505C205.559 421.332 206.581 421.697 207.426 421.32Z" fill="#E5E5E5" fill-opacity="0.39"/>
<path d="M199.58 421.32L199.58 421.32C198.735 420.943 198.386 419.966 198.801 419.139L205.144 406.497C205.559 405.67 206.581 405.305 207.426 405.683C208.271 406.06 208.62 407.036 208.205 407.863L201.862 420.505C201.447 421.332 200.425 421.697 199.58 421.32Z" fill="#E5E5E5" fill-opacity="0.37"/>
<path d="M197.042 415.24C196.071 415.236 195.22 414.447 195.142 413.48C195.063 412.512 195.787 411.731 196.758 411.735L209.958 411.797C210.929 411.801 211.78 412.59 211.858 413.558C211.937 414.526 211.213 415.307 210.242 415.302L197.042 415.24Z" fill="white" fill-opacity="0.42"/>
<path d="M71.426 205.32L71.426 205.32C72.2711 204.943 72.6197 203.966 72.2047 203.139L65.8618 190.497C65.4468 189.67 64.4253 189.305 63.5802 189.682C62.7351 190.06 62.3864 191.036 62.8014 191.863L69.1443 204.505C69.5593 205.332 70.5809 205.697 71.426 205.32Z" fill="#E5E5E5" fill-opacity="0.39"/>
<path d="M63.5803 205.32L63.5802 205.32C62.7351 204.943 62.3865 203.966 62.8015 203.139L69.1444 190.497C69.5594 189.67 70.5809 189.305 71.426 189.682C72.2711 190.06 72.6198 191.036 72.2048 191.863L65.8619 204.505C65.4469 205.332 64.4254 205.697 63.5803 205.32Z" fill="#E5E5E5" fill-opacity="0.37"/>
<path d="M61.0417 199.24C60.0706 199.236 59.22 198.447 59.1417 197.48C59.0634 196.512 59.7872 195.731 60.7583 195.735L73.9584 195.797C74.9294 195.801 75.7801 196.59 75.8583 197.558C75.9366 198.526 75.2128 199.307 74.2418 199.302L61.0417 199.24Z" fill="white" fill-opacity="0.42"/>
<path d="M141.426 88.3202L141.426 88.3202C142.271 87.943 142.62 86.9668 142.205 86.1396L135.862 73.4977C135.447 72.6705 134.425 72.3057 133.58 72.6828C132.735 73.06 132.386 74.0362 132.801 74.8634L139.144 87.5053C139.559 88.3325 140.581 88.6973 141.426 88.3202Z" fill="#E5E5E5" fill-opacity="0.39"/>
<path d="M133.58 88.3202L133.58 88.3202C132.735 87.943 132.386 86.9668 132.801 86.1396L139.144 73.4977C139.559 72.6705 140.581 72.3057 141.426 72.6828C142.271 73.06 142.62 74.0362 142.205 74.8634L135.862 87.5053C135.447 88.3325 134.425 88.6973 133.58 88.3202Z" fill="#E5E5E5" fill-opacity="0.37"/>
<path d="M131.042 82.2403C130.071 82.2358 129.22 81.4475 129.142 80.4795C129.063 79.5116 129.787 78.7307 130.758 78.7352L143.958 78.7969C144.929 78.8014 145.78 79.5897 145.858 80.5576C145.937 81.5255 145.213 82.3065 144.242 82.302L131.042 82.2403Z" fill="white" fill-opacity="0.42"/>
<path d="M326.426 54.3202L326.426 54.3202C327.271 53.943 327.62 52.9668 327.205 52.1396L320.862 39.4977C320.447 38.6705 319.425 38.3057 318.58 38.6828C317.735 39.06 317.386 40.0362 317.801 40.8634L324.144 53.5053C324.559 54.3325 325.581 54.6973 326.426 54.3202Z" fill="#E5E5E5" fill-opacity="0.39"/>
<path d="M318.58 54.3202L318.58 54.3202C317.735 53.943 317.386 52.9668 317.801 52.1396L324.144 39.4977C324.559 38.6705 325.581 38.3057 326.426 38.6828C327.271 39.06 327.62 40.0362 327.205 40.8634L320.862 53.5053C320.447 54.3325 319.425 54.6973 318.58 54.3202Z" fill="#E5E5E5" fill-opacity="0.37"/>
<path d="M316.042 48.2403C315.071 48.2358 314.22 47.4475 314.142 46.4795C314.063 45.5116 314.787 44.7307 315.758 44.7352L328.958 44.7969C329.929 44.8014 330.78 45.5897 330.858 46.5576C330.937 47.5255 330.213 48.3065 329.242 48.302L316.042 48.2403Z" fill="white" fill-opacity="0.42"/>
<path d="M586.426 28.3202L586.426 28.3202C587.271 27.943 587.62 26.9668 587.205 26.1396L580.862 13.4977C580.447 12.6705 579.425 12.3057 578.58 12.6828C577.735 13.06 577.386 14.0362 577.801 14.8634L584.144 27.5053C584.559 28.3325 585.581 28.6973 586.426 28.3202Z" fill="#E5E5E5" fill-opacity="0.39"/>
<path d="M578.58 28.3202L578.58 28.3202C577.735 27.943 577.386 26.9668 577.801 26.1396L584.144 13.4977C584.559 12.6705 585.581 12.3057 586.426 12.6828C587.271 13.06 587.62 14.0362 587.205 14.8634L580.862 27.5053C580.447 28.3325 579.425 28.6973 578.58 28.3202Z" fill="#E5E5E5" fill-opacity="0.37"/>
<path d="M576.042 22.2403C575.071 22.2358 574.22 21.4475 574.142 20.4795C574.063 19.5116 574.787 18.7307 575.758 18.7352L588.958 18.7969C589.929 18.8014 590.78 19.5897 590.858 20.5576C590.937 21.5255 590.213 22.3065 589.242 22.302L576.042 22.2403Z" fill="white" fill-opacity="0.42"/>
<path d="M871.426 448.32L871.426 448.32C872.271 447.943 872.62 446.966 872.205 446.139L865.862 433.497C865.447 432.67 864.425 432.305 863.58 432.683C862.735 433.06 862.386 434.036 862.801 434.863L869.144 447.505C869.559 448.332 870.581 448.697 871.426 448.32Z" fill="#E5E5E5" fill-opacity="0.39"/>
<path d="M863.58 448.32L863.58 448.32C862.735 447.943 862.386 446.966 862.801 446.139L869.144 433.497C869.559 432.67 870.581 432.305 871.426 432.683C872.271 433.06 872.62 434.036 872.205 434.863L865.862 447.505C865.447 448.332 864.425 448.697 863.58 448.32Z" fill="#E5E5E5" fill-opacity="0.37"/>
<path d="M861.042 442.24C860.071 442.236 859.22 441.447 859.142 440.48C859.063 439.512 859.787 438.731 860.758 438.735L873.958 438.797C874.929 438.801 875.78 439.59 875.858 440.558C875.937 441.526 875.213 442.307 874.242 442.302L861.042 442.24Z" fill="white" fill-opacity="0.42"/>
<path d="M899.426 318.32L899.426 318.32C900.271 317.943 900.62 316.966 900.205 316.139L893.862 303.497C893.447 302.67 892.425 302.305 891.58 302.682C890.735 303.06 890.386 304.036 890.801 304.863L897.144 317.505C897.559 318.332 898.581 318.697 899.426 318.32Z" fill="#E5E5E5" fill-opacity="0.39"/>
<path d="M891.58 318.32L891.58 318.32C890.735 317.943 890.386 316.966 890.801 316.139L897.144 303.497C897.559 302.67 898.581 302.305 899.426 302.682C900.271 303.06 900.62 304.036 900.205 304.863L893.862 317.505C893.447 318.332 892.425 318.697 891.58 318.32Z" fill="#E5E5E5" fill-opacity="0.37"/>
<path d="M889.042 312.24C888.071 312.236 887.22 311.447 887.142 310.48C887.063 309.512 887.787 308.731 888.758 308.735L901.958 308.797C902.929 308.801 903.78 309.59 903.858 310.558C903.937 311.526 903.213 312.307 902.242 312.302L889.042 312.24Z" fill="white" fill-opacity="0.42"/>
<path d="M1277.43 171.32L1277.43 171.32C1278.27 170.943 1278.62 169.966 1278.21 169.139L1271.87 156.497C1271.45 155.67 1270.43 155.305 1269.58 155.682C1268.74 156.06 1268.39 157.036 1268.81 157.863L1275.15 170.505C1275.56 171.332 1276.58 171.697 1277.43 171.32Z" fill="#E5E5E5" fill-opacity="0.39"/>
<path d="M1269.58 171.32L1269.58 171.32C1268.74 170.943 1268.39 169.966 1268.8 169.139L1275.14 156.497C1275.56 155.67 1276.58 155.305 1277.43 155.682C1278.27 156.06 1278.62 157.036 1278.2 157.863L1271.86 170.505C1271.45 171.332 1270.43 171.697 1269.58 171.32Z" fill="#E5E5E5" fill-opacity="0.37"/>
<path d="M1267.04 165.24C1266.07 165.236 1265.22 164.447 1265.14 163.48C1265.06 162.512 1265.79 161.731 1266.76 161.735L1279.96 161.797C1280.93 161.801 1281.78 162.59 1281.86 163.558C1281.94 164.526 1281.21 165.307 1280.24 165.302L1267.04 165.24Z" fill="white" fill-opacity="0.42"/>
<path d="M753.426 277.32L753.426 277.32C754.271 276.943 754.62 275.966 754.205 275.139L747.862 262.497C747.447 261.67 746.425 261.305 745.58 261.682C744.735 262.06 744.386 263.036 744.801 263.863L751.144 276.505C751.559 277.332 752.581 277.697 753.426 277.32Z" fill="#E5E5E5" fill-opacity="0.39"/>
<path d="M745.58 277.32L745.58 277.32C744.735 276.943 744.386 275.966 744.801 275.139L751.144 262.497C751.559 261.67 752.581 261.305 753.426 261.682C754.271 262.06 754.62 263.036 754.205 263.863L747.862 276.505C747.447 277.332 746.425 277.697 745.58 277.32Z" fill="#E5E5E5" fill-opacity="0.37"/>
<path d="M743.042 271.24C742.071 271.236 741.22 270.447 741.142 269.48C741.063 268.512 741.787 267.731 742.758 267.735L755.958 267.797C756.929 267.801 757.78 268.59 757.858 269.558C757.937 270.526 757.213 271.307 756.242 271.302L743.042 271.24Z" fill="white" fill-opacity="0.42"/>
<path d="M1102.43 274.32L1102.43 274.32C1103.27 273.943 1103.62 272.966 1103.21 272.139L1096.87 259.497C1096.45 258.67 1095.43 258.305 1094.58 258.682C1093.74 259.06 1093.39 260.036 1093.81 260.863L1100.15 273.505C1100.56 274.332 1101.58 274.697 1102.43 274.32Z" fill="#E5E5E5" fill-opacity="0.39"/>
<path d="M1094.58 274.32L1094.58 274.32C1093.74 273.943 1093.39 272.966 1093.8 272.139L1100.14 259.497C1100.56 258.67 1101.58 258.305 1102.43 258.682C1103.27 259.06 1103.62 260.036 1103.2 260.863L1096.86 273.505C1096.45 274.332 1095.43 274.697 1094.58 274.32Z" fill="#E5E5E5" fill-opacity="0.37"/>
<path d="M1092.04 268.24C1091.07 268.236 1090.22 267.447 1090.14 266.48C1090.06 265.512 1090.79 264.731 1091.76 264.735L1104.96 264.797C1105.93 264.801 1106.78 265.59 1106.86 266.558C1106.94 267.526 1106.21 268.307 1105.24 268.302L1092.04 268.24Z" fill="white" fill-opacity="0.42"/>
<path d="M1245.43 298.32L1245.43 298.32C1246.27 297.943 1246.62 296.966 1246.21 296.139L1239.87 283.497C1239.45 282.67 1238.43 282.305 1237.58 282.682C1236.74 283.06 1236.39 284.036 1236.81 284.863L1243.15 297.505C1243.56 298.332 1244.58 298.697 1245.43 298.32Z" fill="#E5E5E5" fill-opacity="0.39"/>
<path d="M1237.58 298.32L1237.58 298.32C1236.74 297.943 1236.39 296.966 1236.8 296.139L1243.14 283.497C1243.56 282.67 1244.58 282.305 1245.43 282.682C1246.27 283.06 1246.62 284.036 1246.2 284.863L1239.86 297.505C1239.45 298.332 1238.43 298.697 1237.58 298.32Z" fill="#E5E5E5" fill-opacity="0.37"/>
<path d="M1235.04 292.24C1234.07 292.236 1233.22 291.447 1233.14 290.48C1233.06 289.512 1233.79 288.731 1234.76 288.735L1247.96 288.797C1248.93 288.801 1249.78 289.59 1249.86 290.558C1249.94 291.526 1249.21 292.307 1248.24 292.302L1235.04 292.24Z" fill="white" fill-opacity="0.42"/>
<path d="M723.426 438.32L723.426 438.32C724.271 437.943 724.62 436.966 724.205 436.139L717.862 423.497C717.447 422.67 716.425 422.305 715.58 422.683C714.735 423.06 714.386 424.036 714.801 424.863L721.144 437.505C721.559 438.332 722.581 438.697 723.426 438.32Z" fill="#E5E5E5" fill-opacity="0.39"/>
<path d="M715.58 438.32L715.58 438.32C714.735 437.943 714.386 436.966 714.801 436.139L721.144 423.497C721.559 422.67 722.581 422.305 723.426 422.683C724.271 423.06 724.62 424.036 724.205 424.863L717.862 437.505C717.447 438.332 716.425 438.697 715.58 438.32Z" fill="#E5E5E5" fill-opacity="0.37"/>
<path d="M713.042 432.24C712.071 432.236 711.22 431.447 711.142 430.48C711.063 429.512 711.787 428.731 712.758 428.735L725.958 428.797C726.929 428.801 727.78 429.59 727.858 430.558C727.937 431.526 727.213 432.307 726.242 432.302L713.042 432.24Z" fill="white" fill-opacity="0.42"/>
<path d="M1057.43 380.32L1057.43 380.32C1058.27 379.943 1058.62 378.966 1058.21 378.139L1051.87 365.497C1051.45 364.67 1050.43 364.305 1049.58 364.683C1048.74 365.06 1048.39 366.036 1048.81 366.863L1055.15 379.505C1055.56 380.332 1056.58 380.697 1057.43 380.32Z" fill="#E5E5E5" fill-opacity="0.39"/>
<path d="M1049.58 380.32L1049.58 380.32C1048.74 379.943 1048.39 378.966 1048.8 378.139L1055.14 365.497C1055.56 364.67 1056.58 364.305 1057.43 364.683C1058.27 365.06 1058.62 366.036 1058.2 366.863L1051.86 379.505C1051.45 380.332 1050.43 380.697 1049.58 380.32Z" fill="#E5E5E5" fill-opacity="0.37"/>
<path d="M1047.04 374.24C1046.07 374.236 1045.22 373.447 1045.14 372.48C1045.06 371.512 1045.79 370.731 1046.76 370.735L1059.96 370.797C1060.93 370.801 1061.78 371.59 1061.86 372.558C1061.94 373.526 1061.21 374.307 1060.24 374.302L1047.04 374.24Z" fill="white" fill-opacity="0.42"/>
<path d="M1277.43 339.32L1277.43 339.32C1278.27 338.943 1278.62 337.966 1278.21 337.139L1271.87 324.497C1271.45 323.67 1270.43 323.305 1269.58 323.683C1268.74 324.06 1268.39 325.036 1268.81 325.863L1275.15 338.505C1275.56 339.332 1276.58 339.697 1277.43 339.32Z" fill="#E5E5E5" fill-opacity="0.39"/>
<path d="M1269.58 339.32L1269.58 339.32C1268.74 338.943 1268.39 337.966 1268.8 337.139L1275.14 324.497C1275.56 323.67 1276.58 323.305 1277.43 323.683C1278.27 324.06 1278.62 325.036 1278.2 325.863L1271.86 338.505C1271.45 339.332 1270.43 339.697 1269.58 339.32Z" fill="#E5E5E5" fill-opacity="0.37"/>
<path d="M1267.04 333.24C1266.07 333.236 1265.22 332.447 1265.14 331.48C1265.06 330.512 1265.79 329.731 1266.76 329.735L1279.96 329.797C1280.93 329.801 1281.78 330.59 1281.86 331.558C1281.94 332.526 1281.21 333.307 1280.24 333.302L1267.04 333.24Z" fill="white" fill-opacity="0.42"/>
<path d="M1408.43 429.32L1408.43 429.32C1409.27 428.943 1409.62 427.966 1409.21 427.139L1402.87 414.497C1402.45 413.67 1401.43 413.305 1400.58 413.683C1399.74 414.06 1399.39 415.036 1399.81 415.863L1406.15 428.505C1406.56 429.332 1407.58 429.697 1408.43 429.32Z" fill="#E5E5E5" fill-opacity="0.39"/>
<path d="M1400.58 429.32L1400.58 429.32C1399.74 428.943 1399.39 427.966 1399.8 427.139L1406.14 414.497C1406.56 413.67 1407.58 413.305 1408.43 413.683C1409.27 414.06 1409.62 415.036 1409.2 415.863L1402.86 428.505C1402.45 429.332 1401.43 429.697 1400.58 429.32Z" fill="#E5E5E5" fill-opacity="0.37"/>
<path d="M1398.04 423.24C1397.07 423.236 1396.22 422.447 1396.14 421.48C1396.06 420.512 1396.79 419.731 1397.76 419.735L1410.96 419.797C1411.93 419.801 1412.78 420.59 1412.86 421.558C1412.94 422.526 1412.21 423.307 1411.24 423.302L1398.04 423.24Z" fill="white" fill-opacity="0.42"/>
<path d="M1463.43 312.32L1463.43 312.32C1464.27 311.943 1464.62 310.966 1464.21 310.139L1457.87 297.497C1457.45 296.67 1456.43 296.305 1455.58 296.682C1454.74 297.06 1454.39 298.036 1454.81 298.863L1461.15 311.505C1461.56 312.332 1462.58 312.697 1463.43 312.32Z" fill="#E5E5E5" fill-opacity="0.39"/>
<path d="M1455.58 312.32L1455.58 312.32C1454.74 311.943 1454.39 310.966 1454.8 310.139L1461.14 297.497C1461.56 296.67 1462.58 296.305 1463.43 296.682C1464.27 297.06 1464.62 298.036 1464.2 298.863L1457.86 311.505C1457.45 312.332 1456.43 312.697 1455.58 312.32Z" fill="#E5E5E5" fill-opacity="0.37"/>
<path d="M1453.04 306.24C1452.07 306.236 1451.22 305.447 1451.14 304.48C1451.06 303.512 1451.79 302.731 1452.76 302.735L1465.96 302.797C1466.93 302.801 1467.78 303.59 1467.86 304.558C1467.94 305.526 1467.21 306.307 1466.24 306.302L1453.04 306.24Z" fill="white" fill-opacity="0.42"/>
<path d="M498.426 115.32L498.426 115.32C499.271 114.943 499.62 113.966 499.205 113.139L492.862 100.497C492.447 99.6702 491.425 99.3054 490.58 99.6825C489.735 100.06 489.386 101.036 489.801 101.863L496.144 114.505C496.559 115.332 497.581 115.697 498.426 115.32Z" fill="#E5E5E5" fill-opacity="0.39"/>
<path d="M490.58 115.32L490.58 115.32C489.735 114.943 489.386 113.966 489.801 113.139L496.144 100.497C496.559 99.6702 497.581 99.3054 498.426 99.6825C499.271 100.06 499.62 101.036 499.205 101.863L492.862 114.505C492.447 115.332 491.425 115.697 490.58 115.32Z" fill="#E5E5E5" fill-opacity="0.37"/>
<path d="M488.042 119.24C487.071 119.236 486.22 118.447 486.142 117.48C486.063 116.512 486.787 115.731 487.758 115.735L500.958 115.797C501.929 115.801 502.78 116.59 502.858 117.558C502.937 118.526 502.213 119.307 501.242 119.302L488.042 119.24Z" fill="white" fill-opacity="0.42"/>
<rect width="6.30812" height="32.9275" rx="3.15406" transform="matrix(-0.913228 0.407449 -0.448516 -0.893775 132.271 304.43)" fill="#E5E5E5" fill-opacity="0.76"/>
<rect width="6.30812" height="32.9275" rx="3.15406" transform="matrix(0.913228 0.407449 0.448516 -0.893775 111.741 304.43)" fill="#E5E5E5"/>
<rect width="6.61822" height="31.4669" rx="3.30911" transform="matrix(0.0806077 0.996746 0.999989 0.00467067 106 287.66)" fill="white"/>
</svg>
