<svg width="1624" height="1750" viewBox="0 0 1624 1750" fill="none" xmlns="http://www.w3.org/2000/svg">
<rect x="32" y="1750" width="323" height="1114" rx="161.5" transform="rotate(-90 32 1750)" fill="#E9E9E9"/>
<path d="M0 1550C0 1660.46 89.543 1750 200 1750H323V161.5C323 72.3061 250.694 0.000104308 161.5 0.000104308C72.306 0.000104308 0 72.3061 0 161.5V1550Z" fill="white"/>
<rect x="1567" width="323" height="1089" rx="161.5" transform="rotate(90 1567 0)" fill="#E9E9E9"/>
<path d="M1624 200C1624 89.543 1534.46 0 1424 0H1301V1588.5C1301 1677.69 1373.31 1750 1462.5 1750C1551.69 1750 1624 1677.69 1624 1588.5V200Z" fill="white"/>
<rect width="120.521" height="628.023" rx="60.2604" transform="matrix(-0.913638 0.406528 -0.449488 -0.893287 1011.29 1131)" fill="white" fill-opacity="0.7"/>
<rect x="1145" y="817.405" width="115.188" height="660" rx="57.5941" transform="rotate(90 1145 817.405)" fill="#E5E5E5"/>
<rect width="120.521" height="628.023" rx="60.2604" transform="matrix(0.913638 0.406528 0.449488 -0.893287 618.886 1131)" fill="white"/>
</svg>
