<svg width="1552" height="1777" viewBox="0 0 1552 1777" fill="none" xmlns="http://www.w3.org/2000/svg">
<path d="M0 1614.95C0 1704.14 72.306 1776.45 161.5 1776.45C250.694 1776.45 323 1704.14 323 1614.95L323 187.95C323 98.756 250.694 26.45 161.5 26.45C72.306 26.45 0 98.756 0 187.95L0 1614.95Z" fill="white" fill-opacity="0.5"/>
<path d="M688 184.95C688 95.756 615.694 23.45 526.5 23.45C437.306 23.45 365 95.756 365 184.95V1611.95C365 1701.14 437.306 1773.45 526.5 1773.45C615.694 1773.45 688 1701.14 688 1611.95V184.95Z" fill="#E5E5E5" fill-opacity="0.7"/>
<path d="M1053 187.95C1053 98.756 980.694 26.45 891.5 26.45C802.306 26.45 730 98.756 730 187.95V1614.95C730 1704.14 802.306 1776.45 891.5 1776.45C980.694 1776.45 1053 1704.14 1053 1614.95V187.95Z" fill="white" fill-opacity="0.8"/>
<path d="M1390.42 160.667C1381.37 71.9332 1302.1 7.336 1213.37 16.3851C1124.63 25.4343 1060.04 104.703 1069.08 193.437L1213.86 1613.07C1222.91 1701.81 1302.18 1766.4 1390.91 1757.36C1479.65 1748.31 1544.24 1669.04 1535.19 1580.3L1390.42 160.667Z" fill="white"/>
</svg>
