<svg width="1624" height="1750" viewBox="0 0 1624 1750" fill="none" xmlns="http://www.w3.org/2000/svg">
<rect x="4" y="1750" width="323" height="1142" rx="161.5" transform="rotate(-90 4 1750)" fill="#E9E9E9"/>
<rect x="199" y="992" width="124" height="758" fill="white"/>
<rect width="323" height="1750" rx="161.5" transform="matrix(1 0 0 -1 0 1750)" fill="white"/>
<rect x="1620" width="323" height="1142" rx="161.5" transform="rotate(90 1620 0)" fill="#E9E9E9"/>
<rect width="323" height="1750" rx="161.5" transform="matrix(-1 0 0 1 1624 0)" fill="white"/>
<rect width="120.521" height="628.023" rx="60.2604" transform="matrix(-0.913638 0.406528 -0.449488 -0.893287 1011.29 1131)" fill="white" fill-opacity="0.7"/>
<rect x="1145" y="817.405" width="115.188" height="660" rx="57.5941" transform="rotate(90 1145 817.405)" fill="#E5E5E5"/>
<rect width="120.521" height="628.023" rx="60.2604" transform="matrix(0.913638 0.406528 0.449488 -0.893287 618.886 1131)" fill="white"/>
</svg>
