<svg width="50" height="50" viewBox="0 0 50 50" fill="none" xmlns="http://www.w3.org/2000/svg">
<rect y="50" width="50" height="50" rx="10" transform="rotate(-90 0 50)" fill="#0C0C0C"/>
<path fill-rule="evenodd" clip-rule="evenodd" d="M12.779 14.1809C12.7644 14.2646 12.7504 14.3487 12.737 14.433C11.4843 22.3425 16.2174 29.665 23.3087 30.7881C30.4 31.9113 37.1642 26.4098 38.4169 18.5003C38.6057 17.3083 38.6586 16.1296 38.5879 14.9834C40.8216 18.2403 41.861 22.3252 41.1944 26.5337C39.8121 35.2615 31.6162 41.2161 22.8885 39.8338C14.1607 38.4514 8.20606 30.2556 9.5884 21.5278C10.0286 18.7485 11.1597 16.2504 12.779 14.1809Z" fill="white"/>
<rect x="31.5588" y="14.039" width="2.76857" height="15" rx="1.38429" transform="rotate(64.6777 31.5588 14.039)" fill="white" fill-opacity="0.7"/>
<rect x="23.9829" y="11" width="2.76857" height="15" rx="1.38429" fill="#E5E5E5"/>
<rect width="2.76857" height="15" rx="1.38429" transform="matrix(0.42771 -0.903916 -0.903916 -0.42771 31.5588 22.9572)" fill="white"/>
</svg>
