<svg width="9000" height="6000" viewBox="0 0 9000 6000" fill="none" xmlns="http://www.w3.org/2000/svg">
<rect width="9000" height="6000" fill="#081C34"/>
<rect width="237.276" height="1313.26" rx="118.638" transform="matrix(-0.871715 -0.457848 0.47311 -0.897431 5608.09 2888.69)" fill="#E5E5E5"/>
<rect width="237.276" height="1313.26" rx="118.638" transform="matrix(0.179071 0.999211 0.959824 -0.222535 4899.96 1906.77)" fill="white"/>
<rect width="237.276" height="1313.26" rx="118.638" transform="matrix(-0.871715 -0.457848 0.47311 -0.897431 5025.77 3343.82)" fill="#E5E5E5"/>
<rect width="237.276" height="1313.26" rx="118.638" transform="matrix(0.179071 0.999211 0.959824 -0.222535 4317.64 2361.91)" fill="white"/>
<rect width="237.276" height="1313.26" rx="118.638" transform="matrix(-0.871715 -0.457848 0.47311 -0.897431 4462.48 3784.09)" fill="#E5E5E5"/>
<rect width="237.276" height="1313.26" rx="118.638" transform="matrix(0.179071 0.999211 0.959824 -0.222535 3754.35 2802.17)" fill="white"/>
<path fill-rule="evenodd" clip-rule="evenodd" d="M4888.45 1388.2C4648.16 1381.85 4402.48 1447.52 4182.94 1592.29C3601.22 1975.88 3423.34 2769.56 3785.64 3365.02C4147.94 3960.48 4913.22 4132.24 5494.94 3748.65C5714.48 3603.88 5876.5 3400.71 5973.67 3171.83C5900.59 3581.33 5670.31 3959.26 5305.66 4199.71C4610.15 4658.34 3689.21 4443.16 3248.67 3719.11C2808.13 2995.05 3014.82 2036.3 3710.32 1577.68C4074.97 1337.23 4501.59 1281.99 4888.45 1388.2Z" fill="white"/>
<path fill-rule="evenodd" clip-rule="evenodd" d="M3050.39 3216.23C3086.42 3390.24 3152.03 3560.71 3248.91 3719.82C3689.67 4443.73 4610.68 4658.61 5306.05 4199.76C5670.62 3959.18 5900.79 3581.18 5973.75 3171.65C5876.65 3400.57 5714.69 3603.79 5495.2 3748.63C5014.1 4066.09 4407.3 4003.6 4006.78 3635.56L3050.39 3216.23Z" fill="#E5E5E5" fill-opacity="0.53"/>
</svg>
