<svg width="2000" height="667" viewBox="0 0 2000 667" fill="none" xmlns="http://www.w3.org/2000/svg">
<g clip-path="url(#clip0)">
<path d="M2000 0H0V666.667H2000V0Z" fill="#0D1117"/>
<path d="M677.461 416.245C678.503 418.321 681.067 419.237 683.188 418.291C685.308 417.344 686.184 414.895 685.141 412.819L669.223 381.093C668.181 379.017 665.617 378.101 663.496 379.048C661.375 379.993 660.5 382.444 661.541 384.52L677.461 416.245Z" fill="#E5E5E5" fill-opacity="0.76"/>
<path d="M669.221 416.245C668.18 418.321 665.616 419.237 663.495 418.291C661.375 417.344 660.499 414.895 661.541 412.819L677.46 381.093C678.501 379.017 681.065 378.101 683.187 379.048C685.308 379.993 686.183 382.444 685.141 384.52L669.221 416.245Z" fill="#E5E5E5"/>
<path d="M657.124 403.033C654.687 403.021 652.552 401.043 652.356 398.615C652.159 396.185 653.976 394.225 656.412 394.236L689.543 394.392C691.98 394.403 694.115 396.381 694.311 398.811C694.508 401.239 692.691 403.199 690.255 403.188L657.124 403.033Z" fill="white"/>
<path d="M593.462 302.912C594.503 304.988 597.067 305.904 599.188 304.957C601.308 304.011 602.184 301.561 601.141 299.485L585.223 267.76C584.181 265.684 581.618 264.768 579.496 265.715C577.375 266.66 576.5 269.111 577.541 271.187L593.462 302.912Z" fill="#E5E5E5" fill-opacity="0.76"/>
<path d="M585.221 302.912C584.18 304.988 581.616 305.904 579.495 304.957C577.375 304.011 576.499 301.561 577.541 299.485L593.46 267.76C594.501 265.684 597.065 264.768 599.187 265.715C601.308 266.66 602.183 269.111 601.141 271.187L585.221 302.912Z" fill="#E5E5E5"/>
<path d="M573.124 289.7C570.687 289.688 568.552 287.71 568.356 285.282C568.159 282.852 569.976 280.892 572.412 280.903L605.543 281.059C607.98 281.07 610.115 283.048 610.311 285.478C610.508 287.906 608.691 289.866 606.255 289.855L573.124 289.7Z" fill="white"/>
<path d="M794.794 202.912C795.836 204.988 798.4 205.904 800.521 204.957C802.641 204.011 803.517 201.561 802.474 199.485L786.556 167.76C785.514 165.684 782.951 164.768 780.829 165.715C778.708 166.66 777.833 169.111 778.875 171.187L794.794 202.912Z" fill="#E5E5E5" fill-opacity="0.76"/>
<path d="M786.555 202.912C785.513 204.988 782.949 205.904 780.828 204.957C778.708 204.011 777.832 201.561 778.875 199.485L794.793 167.76C795.835 165.684 798.399 164.768 800.52 165.715C802.641 166.66 803.516 169.111 802.475 171.187L786.555 202.912Z" fill="#E5E5E5"/>
<path d="M774.457 189.7C772.02 189.688 769.885 187.71 769.689 185.282C769.492 182.852 771.309 180.892 773.745 180.903L806.876 181.059C809.313 181.07 811.448 183.048 811.644 185.478C811.841 187.906 810.024 189.866 807.588 189.855L774.457 189.7Z" fill="white"/>
<path d="M816.128 340.245C817.169 342.321 819.733 343.237 821.855 342.291C823.975 341.344 824.851 338.895 823.808 336.819L807.889 305.093C806.848 303.017 804.284 302.101 802.163 303.048C800.041 303.993 799.167 306.444 800.208 308.52L816.128 340.245Z" fill="#E5E5E5" fill-opacity="0.76"/>
<path d="M807.888 340.245C806.847 342.321 804.283 343.237 802.161 342.291C800.041 341.344 799.165 338.895 800.208 336.819L816.127 305.093C817.168 303.017 819.732 302.101 821.853 303.048C823.975 303.993 824.849 306.444 823.808 308.52L807.888 340.245Z" fill="#E5E5E5"/>
<path d="M795.791 327.033C793.353 327.021 791.219 325.043 791.023 322.615C790.825 320.185 792.643 318.225 795.079 318.236L828.209 318.392C830.647 318.403 832.781 320.381 832.977 322.811C833.175 325.239 831.357 327.199 828.921 327.188L795.791 327.033Z" fill="white"/>
<path d="M1036.13 140.245C1037.17 142.321 1039.73 143.237 1041.85 142.291C1043.97 141.344 1044.85 138.895 1043.81 136.819L1027.89 105.093C1026.85 103.017 1024.28 102.101 1022.16 103.048C1020.04 103.994 1019.17 106.444 1020.21 108.52L1036.13 140.245Z" fill="#E5E5E5" fill-opacity="0.76"/>
<path d="M1027.89 140.245C1026.85 142.321 1024.28 143.237 1022.16 142.291C1020.04 141.344 1019.17 138.895 1020.21 136.819L1036.13 105.093C1037.17 103.017 1039.73 102.101 1041.85 103.048C1043.97 103.994 1044.85 106.444 1043.81 108.52L1027.89 140.245Z" fill="#E5E5E5"/>
<path d="M1015.79 127.032C1013.35 127.021 1011.22 125.042 1011.02 122.613C1010.83 120.184 1012.64 118.224 1015.08 118.236L1048.21 118.391C1050.65 118.402 1052.78 120.38 1052.98 122.809C1053.17 125.238 1051.36 127.198 1048.92 127.187L1015.79 127.032Z" fill="white"/>
<path d="M1337.45 202.912C1338.51 204.988 1341.07 205.904 1343.19 204.957C1345.31 204.011 1346.19 201.561 1345.15 199.485L1329.22 167.76C1328.18 165.684 1325.62 164.768 1323.49 165.715C1321.37 166.66 1320.5 169.111 1321.54 171.187L1337.45 202.912Z" fill="#E5E5E5" fill-opacity="0.76"/>
<path d="M1329.22 202.912C1328.18 204.988 1325.62 205.904 1323.49 204.957C1321.37 204.011 1320.5 201.561 1321.54 199.485L1337.45 167.76C1338.51 165.684 1341.07 164.768 1343.19 165.715C1345.31 166.66 1346.19 169.111 1345.15 171.187L1329.22 202.912Z" fill="#E5E5E5"/>
<path d="M1317.12 189.7C1314.69 189.688 1312.55 187.71 1312.36 185.282C1312.16 182.852 1313.98 180.892 1316.41 180.903L1349.55 181.059C1351.97 181.07 1354.12 183.048 1354.31 185.478C1354.51 187.906 1352.69 189.866 1350.25 189.855L1317.12 189.7Z" fill="white"/>
<path d="M1940.12 181.578C1941.17 183.654 1943.73 184.57 1945.85 183.624C1947.97 182.677 1948.85 180.228 1947.81 178.152L1931.89 146.426C1930.84 144.35 1928.28 143.434 1926.16 144.381C1924.04 145.326 1923.16 147.777 1924.21 149.853L1940.12 181.578Z" fill="#E5E5E5" fill-opacity="0.76"/>
<path d="M1931.89 181.578C1930.84 183.654 1928.28 184.57 1926.16 183.624C1924.04 182.677 1923.16 180.228 1924.2 178.152L1940.12 146.426C1941.17 144.35 1943.73 143.434 1945.85 144.381C1947.97 145.326 1948.85 147.777 1947.8 149.853L1931.89 181.578Z" fill="#E5E5E5"/>
<path d="M1919.79 168.367C1917.36 168.355 1915.21 166.376 1915.03 163.948C1914.83 161.519 1916.64 159.559 1919.08 159.569L1952.21 159.725C1954.64 159.736 1956.79 161.715 1956.97 164.144C1957.17 166.572 1955.36 168.532 1952.92 168.521L1919.79 168.367Z" fill="white"/>
<path d="M1513.45 140.245C1514.51 142.321 1517.07 143.237 1519.19 142.291C1521.31 141.344 1522.19 138.895 1521.15 136.819L1505.23 105.093C1504.17 103.017 1501.61 102.101 1499.49 103.048C1497.37 103.994 1496.49 106.444 1497.55 108.52L1513.45 140.245Z" fill="#E5E5E5" fill-opacity="0.76"/>
<path d="M1505.23 140.245C1504.17 142.321 1501.61 143.237 1499.49 142.291C1497.37 141.344 1496.49 138.895 1497.53 136.819L1513.45 105.093C1514.51 103.017 1517.07 102.101 1519.19 103.048C1521.31 103.994 1522.19 106.444 1521.13 108.52L1505.23 140.245Z" fill="#E5E5E5"/>
<path d="M1493.12 127.032C1490.69 127.021 1488.55 125.042 1488.36 122.613C1488.16 120.184 1489.97 118.224 1492.41 118.236L1525.55 118.391C1527.97 118.402 1530.12 120.38 1530.31 122.809C1530.51 125.238 1528.69 127.198 1526.25 127.187L1493.12 127.032Z" fill="white"/>
<path d="M1825.45 114.912C1826.51 116.988 1829.07 117.903 1831.19 116.957C1833.31 116.011 1834.19 113.56 1833.15 111.485L1817.23 79.7587C1816.17 77.6828 1813.61 76.7671 1811.49 77.7136C1809.37 78.66 1808.49 81.1101 1809.55 83.186L1825.45 114.912Z" fill="#E5E5E5" fill-opacity="0.76"/>
<path d="M1817.23 114.912C1816.17 116.988 1813.61 117.903 1811.49 116.957C1809.37 116.011 1808.49 113.56 1809.53 111.485L1825.45 79.7587C1826.51 77.6828 1829.07 76.7671 1831.19 77.7136C1833.31 78.66 1834.19 81.1101 1833.13 83.186L1817.23 114.912Z" fill="#E5E5E5"/>
<path d="M1805.12 101.699C1802.69 101.688 1800.55 99.7094 1800.36 97.2805C1800.16 94.8514 1801.97 92.8914 1804.41 92.9029L1837.55 93.0575C1839.97 93.069 1842.12 95.0473 1842.31 97.4764C1842.51 99.9054 1840.69 101.865 1838.25 101.854L1805.12 101.699Z" fill="white"/>
<path d="M1140.13 253.578C1141.17 255.654 1143.73 256.57 1145.85 255.624C1147.97 254.677 1148.85 252.228 1147.81 250.152L1131.89 218.426C1130.85 216.35 1128.28 215.434 1126.16 216.381C1124.04 217.326 1123.17 219.777 1124.21 221.853L1140.13 253.578Z" fill="#E5E5E5" fill-opacity="0.76"/>
<path d="M1131.89 253.578C1130.85 255.654 1128.28 256.57 1126.16 255.624C1124.04 254.677 1123.17 252.228 1124.21 250.152L1140.13 218.426C1141.17 216.35 1143.73 215.434 1145.85 216.381C1147.97 217.326 1148.85 219.777 1147.81 221.853L1131.89 253.578Z" fill="#E5E5E5"/>
<path d="M1119.79 240.367C1117.35 240.355 1115.22 238.376 1115.02 235.948C1114.83 233.519 1116.64 231.559 1119.08 231.569L1152.21 231.725C1154.65 231.736 1156.78 233.715 1156.98 236.144C1157.17 238.572 1155.36 240.532 1152.92 240.521L1119.79 240.367Z" fill="white"/>
<path d="M1253.46 66.9123C1254.5 68.9881 1257.07 69.9039 1259.19 68.9575C1261.31 68.0109 1262.18 65.561 1261.14 63.485L1245.22 31.7592C1244.18 29.6832 1241.62 28.7676 1239.5 29.714C1237.37 30.6604 1236.5 33.1106 1237.54 35.1864L1253.46 66.9123Z" fill="#E5E5E5" fill-opacity="0.76"/>
<path d="M1245.22 66.9123C1244.18 68.9881 1241.62 69.9039 1239.49 68.9575C1237.37 68.0109 1236.5 65.561 1237.54 63.485L1253.46 31.7592C1254.5 29.6832 1257.07 28.7676 1259.19 29.714C1261.31 30.6604 1262.18 33.1106 1261.14 35.1864L1245.22 66.9123Z" fill="#E5E5E5"/>
<path d="M1233.12 53.6988C1230.69 53.6873 1228.55 51.7089 1228.36 49.28C1228.16 46.8509 1229.98 44.8909 1232.41 44.9024L1265.54 45.0571C1267.98 45.0685 1270.11 47.0468 1270.31 49.4759C1270.51 51.9049 1268.69 53.8649 1266.25 53.8535L1233.12 53.6988Z" fill="white"/>
<path d="M1669.45 84.2453C1670.51 86.3212 1673.07 87.2369 1675.19 86.2905C1677.31 85.344 1678.19 82.894 1677.15 80.818L1661.23 49.0922C1660.17 47.0162 1657.61 46.1006 1655.49 47.047C1653.37 47.9934 1652.49 50.4436 1653.55 52.5194L1669.45 84.2453Z" fill="#E5E5E5" fill-opacity="0.76"/>
<path d="M1661.23 84.2453C1660.17 86.3212 1657.61 87.2369 1655.49 86.2905C1653.37 85.344 1652.49 82.894 1653.53 80.818L1669.45 49.0922C1670.51 47.0162 1673.07 46.1006 1675.19 47.047C1677.31 47.9934 1678.19 50.4436 1677.13 52.5194L1661.23 84.2453Z" fill="#E5E5E5"/>
<path d="M1649.12 71.0323C1646.69 71.0208 1644.55 69.0424 1644.36 66.6135C1644.16 64.1844 1645.97 62.2244 1648.41 62.2359L1681.55 62.3906C1683.97 62.402 1686.12 64.3803 1686.31 66.8094C1686.51 69.2384 1684.69 71.1984 1682.25 71.187L1649.12 71.0323Z" fill="white"/>
<path d="M680.568 505.76C681.695 505.258 682.16 503.955 681.607 502.852L673.149 485.996C672.596 484.894 671.233 484.407 670.107 484.911C668.98 485.414 668.515 486.715 669.068 487.818L677.525 504.674C678.079 505.776 679.441 506.263 680.568 505.76Z" fill="#E5E5E5" fill-opacity="0.39"/>
<path d="M670.107 505.76C668.98 505.258 668.515 503.955 669.068 502.852L677.525 485.996C678.079 484.894 679.441 484.407 680.568 484.911C681.695 485.414 682.16 486.715 681.607 487.818L673.149 504.674C672.596 505.776 671.233 506.263 670.107 505.76Z" fill="#E5E5E5" fill-opacity="0.37"/>
<path d="M666.723 497.653C665.428 497.648 664.294 496.596 664.19 495.307C664.084 494.016 665.05 492.975 666.344 492.98L683.944 493.063C685.239 493.068 686.373 494.12 686.477 495.411C686.583 496.701 685.618 497.743 684.323 497.736L666.723 497.653Z" fill="white" fill-opacity="0.42"/>
<path d="M276.568 561.76C277.695 561.258 278.16 559.955 277.607 558.852L269.149 541.996C268.596 540.894 267.233 540.407 266.107 540.911C264.98 541.414 264.515 542.715 265.068 543.818L273.525 560.674C274.079 561.776 275.441 562.263 276.568 561.76Z" fill="#E5E5E5" fill-opacity="0.39"/>
<path d="M266.107 561.76C264.98 561.258 264.515 559.955 265.068 558.852L273.525 541.996C274.079 540.894 275.441 540.407 276.568 540.911C277.695 541.414 278.16 542.715 277.607 543.818L269.149 560.674C268.596 561.776 267.233 562.263 266.107 561.76Z" fill="#E5E5E5" fill-opacity="0.37"/>
<path d="M262.723 553.653C261.428 553.648 260.294 552.596 260.19 551.307C260.084 550.016 261.049 548.975 262.344 548.98L279.944 549.063C281.239 549.068 282.373 550.12 282.477 551.411C282.583 552.701 281.617 553.743 280.323 553.736L262.723 553.653Z" fill="white" fill-opacity="0.42"/>
<path d="M95.2347 273.76C96.3615 273.257 96.8263 271.954 96.2729 270.852L87.8157 253.996C87.2624 252.893 85.9004 252.406 84.7736 252.909C83.6468 253.413 83.1818 254.714 83.7352 255.817L92.1924 272.673C92.7457 273.776 94.1079 274.262 95.2347 273.76Z" fill="#E5E5E5" fill-opacity="0.39"/>
<path d="M84.7738 273.76H84.7737C83.6469 273.257 83.1821 271.954 83.7355 270.852L92.1926 253.996C92.746 252.893 94.108 252.406 95.2348 252.909C96.3616 253.413 96.8265 254.714 96.2732 255.817L87.816 272.673C87.2626 273.776 85.9006 274.262 84.7738 273.76Z" fill="#E5E5E5" fill-opacity="0.37"/>
<path d="M81.389 265.653C80.0942 265.648 78.96 264.596 78.8556 263.307C78.7512 262.016 79.7163 260.975 81.0111 260.98L98.6112 261.063C99.9059 261.068 101.04 262.12 101.144 263.411C101.249 264.701 100.284 265.743 98.9891 265.736L81.389 265.653Z" fill="white" fill-opacity="0.42"/>
<path d="M188.568 117.76C189.695 117.257 190.16 115.956 189.607 114.853L181.149 97.9967C180.596 96.8938 179.233 96.4074 178.107 96.9102C176.98 97.4131 176.515 98.7147 177.068 99.8177L185.525 116.674C186.079 117.776 187.441 118.263 188.568 117.76Z" fill="#E5E5E5" fill-opacity="0.39"/>
<path d="M178.107 117.76C176.98 117.257 176.515 115.956 177.068 114.853L185.525 97.9967C186.079 96.8938 187.441 96.4074 188.568 96.9102C189.695 97.4131 190.16 98.7147 189.607 99.8177L181.149 116.674C180.596 117.776 179.233 118.263 178.107 117.76Z" fill="#E5E5E5" fill-opacity="0.37"/>
<path d="M174.723 109.654C173.428 109.648 172.293 108.597 172.189 107.306C172.084 106.016 173.049 104.974 174.344 104.98L191.944 105.063C193.239 105.069 194.373 106.12 194.477 107.41C194.583 108.701 193.617 109.742 192.323 109.736L174.723 109.654Z" fill="white" fill-opacity="0.42"/>
<path d="M435.235 72.4271C436.361 71.9241 436.827 70.6225 436.273 69.5196L427.816 52.6637C427.263 51.5608 425.9 51.0744 424.773 51.5772C423.647 52.0801 423.181 53.3817 423.735 54.4847L432.192 71.3405C432.745 72.4435 434.108 72.9299 435.235 72.4271Z" fill="#E5E5E5" fill-opacity="0.39"/>
<path d="M424.773 72.4271C423.647 71.9241 423.181 70.6225 423.735 69.5196L432.192 52.6637C432.745 51.5608 434.108 51.0744 435.235 51.5772C436.361 52.0801 436.827 53.3817 436.273 54.4847L427.816 71.3405C427.263 72.4435 425.9 72.9299 424.773 72.4271Z" fill="#E5E5E5" fill-opacity="0.37"/>
<path d="M421.389 64.3205C420.095 64.3145 418.96 63.2634 418.856 61.9727C418.751 60.6822 419.716 59.641 421.011 59.647L438.611 59.7293C439.905 59.7353 441.04 60.7863 441.144 62.0769C441.249 63.3674 440.284 64.4087 438.989 64.4027L421.389 64.3205Z" fill="white" fill-opacity="0.42"/>
<path d="M781.901 37.7601C783.028 37.2571 783.493 35.9555 782.94 34.8526L774.483 17.9967C773.929 16.8938 772.567 16.4074 771.44 16.9102C770.313 17.4131 769.848 18.7147 770.401 19.8177L778.859 36.6735C779.412 37.7765 780.775 38.2629 781.901 37.7601Z" fill="#E5E5E5" fill-opacity="0.39"/>
<path d="M771.44 37.7601C770.313 37.2571 769.848 35.9555 770.401 34.8526L778.859 17.9967C779.412 16.8938 780.775 16.4074 781.901 16.9102C783.028 17.4131 783.493 18.7147 782.94 19.8177L774.483 36.6735C773.929 37.7765 772.567 38.2629 771.44 37.7601Z" fill="#E5E5E5" fill-opacity="0.37"/>
<path d="M768.056 29.654C766.761 29.648 765.627 28.5969 765.523 27.3062C765.417 26.0157 766.383 24.9745 767.677 24.9805L785.277 25.0628C786.572 25.0688 787.707 26.1198 787.811 27.4104C787.916 28.7009 786.951 29.7422 785.656 29.7362L768.056 29.654Z" fill="white" fill-opacity="0.42"/>
<path d="M1161.9 597.76C1163.03 597.257 1163.49 595.954 1162.94 594.852L1154.48 577.996C1153.93 576.893 1152.57 576.406 1151.44 576.91C1150.31 577.413 1149.85 578.714 1150.4 579.817L1158.86 596.673C1159.41 597.776 1160.77 598.262 1161.9 597.76Z" fill="#E5E5E5" fill-opacity="0.39"/>
<path d="M1151.44 597.76C1150.31 597.257 1149.85 595.954 1150.4 594.852L1158.86 577.996C1159.41 576.893 1160.77 576.406 1161.9 576.91C1163.03 577.413 1163.49 578.714 1162.94 579.817L1154.48 596.673C1153.93 597.776 1152.57 598.262 1151.44 597.76Z" fill="#E5E5E5" fill-opacity="0.37"/>
<path d="M1148.06 589.653C1146.76 589.648 1145.63 588.596 1145.52 587.307C1145.42 586.016 1146.38 584.975 1147.68 584.98L1165.28 585.063C1166.57 585.068 1167.71 586.12 1167.81 587.411C1167.92 588.701 1166.95 589.743 1165.66 589.736L1148.06 589.653Z" fill="white" fill-opacity="0.42"/>
<path d="M1199.23 424.427C1200.36 423.924 1200.83 422.621 1200.27 421.519L1191.82 404.663C1191.26 403.56 1189.9 403.073 1188.77 403.576C1187.65 404.08 1187.18 405.381 1187.73 406.484L1196.19 423.34C1196.75 424.443 1198.11 424.929 1199.23 424.427Z" fill="#E5E5E5" fill-opacity="0.39"/>
<path d="M1188.77 424.427C1187.65 423.924 1187.18 422.621 1187.73 421.519L1196.19 404.663C1196.75 403.56 1198.11 403.073 1199.23 403.576C1200.36 404.08 1200.83 405.381 1200.27 406.484L1191.82 423.34C1191.26 424.443 1189.9 424.929 1188.77 424.427Z" fill="#E5E5E5" fill-opacity="0.37"/>
<path d="M1185.39 416.32C1184.09 416.314 1182.96 415.263 1182.86 413.973C1182.75 412.683 1183.72 411.641 1185.01 411.647L1202.61 411.729C1203.91 411.735 1205.04 412.787 1205.14 414.077C1205.25 415.368 1204.28 416.409 1202.99 416.402L1185.39 416.32Z" fill="white" fill-opacity="0.42"/>
<path d="M1703.24 228.427C1704.36 227.924 1704.83 226.621 1704.28 225.519L1695.83 208.663C1695.27 207.56 1693.91 207.073 1692.77 207.576C1691.65 208.08 1691.19 209.381 1691.75 210.484L1700.2 227.34C1700.75 228.443 1702.11 228.929 1703.24 228.427Z" fill="#E5E5E5" fill-opacity="0.39"/>
<path d="M1692.77 228.427C1691.65 227.924 1691.19 226.621 1691.73 225.519L1700.19 208.663C1700.75 207.56 1702.11 207.073 1703.24 207.576C1704.36 208.08 1704.83 209.381 1704.27 210.484L1695.81 227.34C1695.27 228.443 1693.91 228.929 1692.77 228.427Z" fill="#E5E5E5" fill-opacity="0.37"/>
<path d="M1689.39 220.32C1688.09 220.315 1686.96 219.263 1686.85 217.973C1686.75 216.682 1687.72 215.641 1689.01 215.647L1706.61 215.729C1707.91 215.735 1709.04 216.787 1709.15 218.077C1709.25 219.368 1708.28 220.409 1706.99 220.403L1689.39 220.32Z" fill="white" fill-opacity="0.42"/>
<path d="M1004.57 369.76C1005.69 369.257 1006.16 367.954 1005.61 366.852L997.149 349.996C996.596 348.893 995.233 348.406 994.107 348.909C992.98 349.413 992.515 350.714 993.068 351.817L1001.53 368.673C1002.08 369.776 1003.44 370.262 1004.57 369.76Z" fill="#E5E5E5" fill-opacity="0.39"/>
<path d="M994.107 369.76C992.98 369.257 992.515 367.954 993.068 366.852L1001.53 349.996C1002.08 348.893 1003.44 348.406 1004.57 348.909C1005.69 349.413 1006.16 350.714 1005.61 351.817L997.149 368.673C996.596 369.776 995.233 370.262 994.107 369.76Z" fill="#E5E5E5" fill-opacity="0.37"/>
<path d="M990.723 361.653C989.428 361.648 988.294 360.596 988.19 359.307C988.084 358.016 989.049 356.975 990.344 356.98L1007.94 357.063C1009.24 357.068 1010.37 358.12 1010.48 359.411C1010.58 360.701 1009.62 361.743 1008.32 361.736L990.723 361.653Z" fill="white" fill-opacity="0.42"/>
<path d="M1469.91 365.76C1471.03 365.257 1471.49 363.954 1470.95 362.852L1462.49 345.996C1461.93 344.893 1460.57 344.406 1459.44 344.909C1458.32 345.413 1457.85 346.714 1458.41 347.817L1466.87 364.673C1467.41 365.776 1468.77 366.262 1469.91 365.76Z" fill="#E5E5E5" fill-opacity="0.39"/>
<path d="M1459.44 365.76C1458.32 365.257 1457.85 363.954 1458.4 362.852L1466.85 345.996C1467.41 344.893 1468.77 344.406 1469.91 344.909C1471.03 345.413 1471.49 346.714 1470.93 347.817L1462.48 364.673C1461.93 365.776 1460.57 366.262 1459.44 365.76Z" fill="#E5E5E5" fill-opacity="0.37"/>
<path d="M1456.05 357.653C1454.76 357.648 1453.63 356.596 1453.52 355.307C1453.41 354.016 1454.39 352.975 1455.68 352.98L1473.28 353.063C1474.57 353.068 1475.71 354.12 1475.81 355.411C1475.92 356.701 1474.95 357.743 1473.65 357.736L1456.05 357.653Z" fill="white" fill-opacity="0.42"/>
<path d="M1660.57 397.76C1661.69 397.258 1662.16 395.955 1661.61 394.852L1653.16 377.996C1652.6 376.894 1651.24 376.407 1650.11 376.91C1648.99 377.414 1648.52 378.715 1649.08 379.818L1657.53 396.674C1658.08 397.776 1659.44 398.263 1660.57 397.76Z" fill="#E5E5E5" fill-opacity="0.39"/>
<path d="M1650.11 397.76C1648.99 397.258 1648.52 395.955 1649.07 394.852L1657.52 377.996C1658.08 376.894 1659.44 376.407 1660.57 376.91C1661.69 377.414 1662.16 378.715 1661.6 379.818L1653.15 396.674C1652.6 397.776 1651.24 398.263 1650.11 397.76Z" fill="#E5E5E5" fill-opacity="0.37"/>
<path d="M1646.72 389.653C1645.43 389.648 1644.29 388.596 1644.19 387.307C1644.08 386.016 1645.05 384.975 1646.35 384.98L1663.95 385.063C1665.24 385.068 1666.37 386.12 1666.48 387.411C1666.59 388.701 1665.61 389.743 1664.32 389.736L1646.72 389.653Z" fill="white" fill-opacity="0.42"/>
<path d="M964.568 584.427C965.695 583.924 966.16 582.621 965.607 581.519L957.149 564.663C956.596 563.56 955.233 563.073 954.107 563.577C952.98 564.08 952.515 565.381 953.068 566.484L961.525 583.34C962.079 584.443 963.441 584.929 964.568 584.427Z" fill="#E5E5E5" fill-opacity="0.39"/>
<path d="M954.107 584.427C952.98 583.924 952.515 582.621 953.068 581.519L961.525 564.663C962.079 563.56 963.441 563.073 964.568 563.577C965.695 564.08 966.16 565.381 965.607 566.484L957.149 583.34C956.596 584.443 955.233 584.929 954.107 584.427Z" fill="#E5E5E5" fill-opacity="0.37"/>
<path d="M950.723 576.32C949.428 576.314 948.293 575.263 948.189 573.973C948.084 572.683 949.049 571.641 950.344 571.647L967.944 571.729C969.239 571.735 970.373 572.787 970.477 574.077C970.583 575.368 969.617 576.409 968.323 576.402L950.723 576.32Z" fill="white" fill-opacity="0.42"/>
<path d="M1409.91 507.093C1411.03 506.591 1411.49 505.288 1410.95 504.185L1402.49 487.329C1401.93 486.227 1400.57 485.74 1399.44 486.244C1398.32 486.747 1397.85 488.048 1398.41 489.151L1406.87 506.007C1407.41 507.109 1408.77 507.596 1409.91 507.093Z" fill="#E5E5E5" fill-opacity="0.39"/>
<path d="M1399.44 507.093C1398.32 506.591 1397.85 505.288 1398.4 504.185L1406.85 487.329C1407.41 486.227 1408.77 485.74 1409.91 486.244C1411.03 486.747 1411.49 488.048 1410.93 489.151L1402.48 506.007C1401.93 507.109 1400.57 507.596 1399.44 507.093Z" fill="#E5E5E5" fill-opacity="0.37"/>
<path d="M1396.05 498.987C1394.76 498.982 1393.63 497.93 1393.52 496.64C1393.41 495.35 1394.39 494.308 1395.68 494.313L1413.28 494.396C1414.57 494.402 1415.71 495.454 1415.81 496.744C1415.92 498.035 1414.95 499.076 1413.65 499.07L1396.05 498.987Z" fill="white" fill-opacity="0.42"/>
<path d="M1703.24 452.427C1704.36 451.924 1704.83 450.621 1704.28 449.519L1695.83 432.663C1695.27 431.56 1693.91 431.073 1692.77 431.577C1691.65 432.08 1691.19 433.381 1691.75 434.484L1700.2 451.34C1700.75 452.443 1702.11 452.929 1703.24 452.427Z" fill="#E5E5E5" fill-opacity="0.39"/>
<path d="M1692.77 452.427C1691.65 451.924 1691.19 450.621 1691.73 449.519L1700.19 432.663C1700.75 431.56 1702.11 431.073 1703.24 431.577C1704.36 432.08 1704.83 433.381 1704.27 434.484L1695.81 451.34C1695.27 452.443 1693.91 452.929 1692.77 452.427Z" fill="#E5E5E5" fill-opacity="0.37"/>
<path d="M1689.39 444.32C1688.09 444.314 1686.96 443.262 1686.85 441.973C1686.75 440.683 1687.72 439.641 1689.01 439.647L1706.61 439.729C1707.91 439.735 1709.04 440.787 1709.15 442.077C1709.25 443.368 1708.28 444.409 1706.99 444.402L1689.39 444.32Z" fill="white" fill-opacity="0.42"/>
<path d="M1877.91 572.427C1879.03 571.924 1879.49 570.621 1878.95 569.519L1870.49 552.663C1869.93 551.56 1868.57 551.073 1867.44 551.577C1866.32 552.08 1865.85 553.381 1866.41 554.484L1874.87 571.34C1875.41 572.443 1876.77 572.929 1877.91 572.427Z" fill="#E5E5E5" fill-opacity="0.39"/>
<path d="M1867.44 572.427C1866.32 571.924 1865.85 570.621 1866.4 569.519L1874.85 552.663C1875.41 551.56 1876.77 551.073 1877.91 551.577C1879.03 552.08 1879.49 553.381 1878.93 554.484L1870.48 571.34C1869.93 572.443 1868.57 572.929 1867.44 572.427Z" fill="#E5E5E5" fill-opacity="0.37"/>
<path d="M1864.05 564.32C1862.76 564.314 1861.63 563.262 1861.52 561.973C1861.41 560.683 1862.39 559.641 1863.68 559.647L1881.28 559.729C1882.57 559.735 1883.71 560.787 1883.81 562.077C1883.92 563.368 1882.95 564.409 1881.65 564.402L1864.05 564.32Z" fill="white" fill-opacity="0.42"/>
<path d="M1951.24 416.427C1952.36 415.924 1952.83 414.621 1952.28 413.519L1943.83 396.663C1943.27 395.56 1941.91 395.073 1940.77 395.576C1939.65 396.08 1939.19 397.381 1939.75 398.484L1948.2 415.34C1948.75 416.443 1950.11 416.929 1951.24 416.427Z" fill="#E5E5E5" fill-opacity="0.39"/>
<path d="M1940.77 416.427C1939.65 415.924 1939.19 414.621 1939.73 413.519L1948.19 396.663C1948.75 395.56 1950.11 395.073 1951.24 395.576C1952.36 396.08 1952.83 397.381 1952.27 398.484L1943.81 415.34C1943.27 416.443 1941.91 416.929 1940.77 416.427Z" fill="#E5E5E5" fill-opacity="0.37"/>
<path d="M1937.39 408.32C1936.09 408.315 1934.96 407.263 1934.85 405.973C1934.75 404.683 1935.72 403.641 1937.01 403.647L1954.61 403.729C1955.91 403.735 1957.04 404.787 1957.15 406.077C1957.25 407.368 1956.28 408.409 1954.99 408.403L1937.39 408.32Z" fill="white" fill-opacity="0.42"/>
<path d="M664.568 153.76C665.695 153.258 666.16 151.955 665.607 150.852L657.149 133.996C656.596 132.894 655.233 132.407 654.107 132.91C652.98 133.414 652.515 134.715 653.068 135.818L661.525 152.674C662.079 153.776 663.441 154.263 664.568 153.76Z" fill="#E5E5E5" fill-opacity="0.39"/>
<path d="M654.107 153.76C652.98 153.258 652.515 151.955 653.068 150.852L661.525 133.996C662.079 132.894 663.441 132.407 664.568 132.91C665.695 133.414 666.16 134.715 665.607 135.818L657.149 152.674C656.596 153.776 655.233 154.263 654.107 153.76Z" fill="#E5E5E5" fill-opacity="0.37"/>
<path d="M650.541 145.673C649.247 145.668 648.112 144.616 648.008 143.327C647.903 142.036 648.868 140.995 650.163 141L667.763 141.083C669.057 141.088 670.192 142.14 670.296 143.431C670.401 144.721 669.436 145.763 668.141 145.756L650.541 145.673Z" fill="white" fill-opacity="0.42"/>
<path d="M166.794 405.575C167.836 407.651 170.4 408.567 172.521 407.62C174.642 406.674 175.517 404.224 174.475 402.148L158.556 370.426C157.514 368.35 154.951 367.434 152.829 368.381C150.708 369.327 149.833 371.777 150.875 373.853L166.794 405.575Z" fill="#E5E5E5" fill-opacity="0.76"/>
<path d="M158.555 405.575C157.514 407.651 154.95 408.567 152.829 407.62C150.707 406.674 149.833 404.224 150.874 402.148L166.793 370.426C167.835 368.35 170.399 367.434 172.52 368.381C174.641 369.327 175.516 371.777 174.474 373.853L158.555 405.575Z" fill="#E5E5E5"/>
<path d="M146.457 392.363C144.02 392.352 141.885 390.374 141.689 387.945C141.492 385.516 143.309 383.556 145.745 383.567L178.877 383.722C181.313 383.734 183.448 385.712 183.644 388.141C183.841 390.569 182.025 392.529 179.588 392.518L146.457 392.363Z" fill="white"/>
</g>
<rect width="2000" height="667" fill="#0D1117" fill-opacity="0.8"/>
<path d="M157.585 458.171C137.868 458.171 121.884 474.699 121.884 495.086C121.884 515.473 137.868 532 157.585 532H338.632C358.35 532 374.334 515.473 374.334 495.086C374.334 474.699 358.35 458.171 338.632 458.171H157.585Z" fill="#E9E9E9"/>
<path d="M192.402 358.743H160.348V532H192.402V358.743Z" fill="white"/>
<path d="M192.402 495.086C192.402 515.473 176.418 532 156.701 532C136.984 532 121 515.473 121 495.086V168.914C121 148.527 136.984 132 156.701 132C176.418 132 192.402 148.527 192.402 168.914V495.086Z" fill="white"/>
<path d="M443.415 205.829C463.132 205.829 479.116 189.301 479.116 168.914C479.116 148.527 463.132 132 443.415 132H262.367C242.65 132 226.666 148.527 226.666 168.914C226.666 189.301 242.65 205.829 262.367 205.829H443.415Z" fill="#E9E9E9"/>
<path d="M408.598 168.914C408.598 148.527 424.582 132 444.299 132C464.016 132 480 148.527 480 168.914V495.086C480 515.473 464.016 532 444.299 532C424.582 532 408.598 515.473 408.598 495.086V168.914Z" fill="white"/>
<path d="M332.384 396.114L332.385 396.114C339.106 393.022 341.874 385.006 338.567 378.211L288.14 274.589C284.833 267.794 276.704 264.792 269.982 267.884C263.26 270.977 260.492 278.993 263.799 285.788L314.226 389.41C317.533 396.205 325.663 399.207 332.384 396.114Z" fill="white" fill-opacity="0.7"/>
<path d="M361.381 345.163C368.413 345.163 374.113 339.269 374.113 331.998C374.113 324.728 368.413 318.834 361.381 318.834H240.945C233.914 318.834 228.214 324.728 228.214 331.998C228.214 339.269 233.914 345.163 240.945 345.163H361.381Z" fill="#E5E5E5"/>
<path d="M269.982 396.114L269.982 396.114C263.26 393.022 260.492 385.006 263.799 378.211L314.226 274.589C317.533 267.794 325.663 264.792 332.384 267.884C339.106 270.977 341.874 278.993 338.567 285.788L288.14 389.41C284.833 396.205 276.703 399.207 269.982 396.114Z" fill="white"/>
<path d="M444.41 132H408.598V305.257H444.41V132Z" fill="white"/>
<circle cx="605" cy="207" r="50" fill="#C4C4C4"/>
<path fill-rule="evenodd" clip-rule="evenodd" d="M621.667 159.845C602.247 166.709 588.333 185.23 588.333 207C588.333 228.77 602.247 247.291 621.667 254.155C616.454 255.997 610.844 257 605 257C577.386 257 555 234.614 555 207C555 179.386 577.386 157 605 157C610.844 157 616.454 158.003 621.667 159.845Z" fill="white"/>
<circle cx="605" cy="457" r="50" transform="rotate(-180 605 457)" fill="#C4C4C4"/>
<path fill-rule="evenodd" clip-rule="evenodd" d="M588.333 504.155C607.753 497.291 621.667 478.77 621.667 457C621.667 435.23 607.753 416.709 588.333 409.845C593.546 408.003 599.156 407 605 407C632.614 407 655 429.386 655 457C655 484.614 632.614 507 605 507C599.156 507 593.546 505.997 588.333 504.155Z" fill="white"/>
<rect x="840.565" y="232.463" width="269.565" height="72.6" rx="36.3" fill="#E5E5E5"/>
<rect width="75.12" height="409.957" rx="37.56" transform="matrix(-0.910637 -0.413206 -0.442491 0.896773 1171 165.108)" fill="#C4C4C4"/>
<rect width="75.12" height="409.95" rx="37.56" transform="matrix(0.910225 -0.414114 0.44155 0.897237 771 165.108)" fill="white"/>
<rect x="1493.83" y="501.891" width="75.1161" height="406.976" rx="37.5581" transform="rotate(154.678 1493.83 501.891)" fill="#E5E5E5"/>
<rect width="75.12" height="406.997" rx="37.56" transform="matrix(0.903916 0.42771 0.42771 -0.903916 1110 501.891)" fill="white"/>
<rect x="1818.52" y="499.872" width="75.1161" height="406.976" rx="37.5581" transform="rotate(154.678 1818.52 499.872)" fill="white" fill-opacity="0.7"/>
<rect x="1900.98" y="294.326" width="75.1161" height="406.976" rx="37.5581" transform="rotate(90 1900.98 294.326)" fill="#E5E5E5"/>
<rect width="75.1161" height="406.976" rx="37.5581" transform="matrix(0.903916 0.42771 0.42771 -0.903916 1576.56 499.872)" fill="white"/>
<defs>
<clipPath id="clip0">
<rect width="2000" height="666.667" fill="white"/>
</clipPath>
</defs>
</svg>
