<svg width="2508" height="2508" viewBox="0 0 2508 2508" fill="none" xmlns="http://www.w3.org/2000/svg">
<g filter="url(#filter0_d)">
<rect x="4" width="2500" height="2500" rx="500" fill="black"/>
<rect x="4.5" y="0.5" width="2499" height="2499" rx="499.5" stroke="black"/>
</g>
<rect width="120.325" height="593.593" rx="60.1625" transform="matrix(-0.839462 -0.518359 0.409279 -0.92983 1712.02 1326.69)" fill="#E5E5E5"/>
<rect width="120.325" height="593.593" rx="60.1625" transform="matrix(0.244171 0.983356 0.972406 -0.14944 1341.69 813.492)" fill="white"/>
<rect width="120.325" height="593.593" rx="60.1625" transform="matrix(-0.839462 -0.518359 0.409279 -0.92983 1458.22 1524.94)" fill="#E5E5E5"/>
<rect width="120.325" height="593.593" rx="60.1625" transform="matrix(0.244171 0.983356 0.972406 -0.14944 1087.9 1011.74)" fill="white"/>
<rect width="120.325" height="593.593" rx="60.1625" transform="matrix(-0.839462 -0.518359 0.409279 -0.92983 1212.72 1716.71)" fill="#E5E5E5"/>
<rect width="120.325" height="593.593" rx="60.1625" transform="matrix(0.244171 0.983356 0.972406 -0.14944 842.399 1203.51)" fill="white"/>
<path fill-rule="evenodd" clip-rule="evenodd" d="M1441.55 456.462C1316.47 453.763 1188.75 488.245 1074.51 563.527C769.363 764.626 676.056 1180.72 866.105 1492.89C1056.15 1805.06 1457.59 1895.1 1762.74 1694C1880.27 1616.55 1966.38 1507.2 2016.97 1384.18C1980.26 1601.68 1858.83 1802.9 1665.1 1930.3C1300.04 2170.38 816.491 2057.47 585.054 1678.11C353.617 1298.75 461.936 796.596 826.993 556.52C1017.15 431.462 1239.47 402.187 1441.55 456.462Z" fill="white"/>
<path fill-rule="evenodd" clip-rule="evenodd" d="M480.42 1414.88C499.318 1506.11 533.737 1595.48 584.557 1678.89C815.763 2058.41 1298.89 2171.05 1663.66 1930.5C1854.9 1804.38 1975.64 1606.21 2013.91 1391.51C1962.97 1511.52 1878.01 1618.06 1762.88 1693.99C1510.51 1860.42 1192.2 1827.66 982.103 1634.72L480.42 1414.88Z" fill="#E5E5E5" fill-opacity="0.53"/>
<defs>
<filter id="filter0_d" x="0" y="0" width="2508" height="2508" filterUnits="userSpaceOnUse" color-interpolation-filters="sRGB">
<feFlood flood-opacity="0" result="BackgroundImageFix"/>
<feColorMatrix in="SourceAlpha" type="matrix" values="0 0 0 0 0 0 0 0 0 0 0 0 0 0 0 0 0 0 127 0"/>
<feOffset dy="4"/>
<feGaussianBlur stdDeviation="2"/>
<feColorMatrix type="matrix" values="0 0 0 0 0 0 0 0 0 0 0 0 0 0 0 0 0 0 0.25 0"/>
<feBlend mode="normal" in2="BackgroundImageFix" result="effect1_dropShadow"/>
<feBlend mode="normal" in="SourceGraphic" in2="effect1_dropShadow" result="shape"/>
</filter>
</defs>
</svg>
